<svg width="46" height="44" viewBox="0 0 46 44" fill="none" xmlns="http://www.w3.org/2000/svg">
    <path d="M39.4696 34.0278C38.9804 32.9468 38.0388 32.5684 37.605 32.4484L31.3927 28.4884C31.3004 28.4145 30.4235 27.7776 29.1404 27.7776C28.0235 27.7776 26.3619 28.2761 24.8296 30.6668C24.3312 31.4515 23.7681 31.5438 23.3896 31.5438C22.4296 31.5438 20.6296 30.8699 17.5835 27.6945L17.3896 27.4915C16.9742 27.0853 14.5465 24.1776 13.0696 22.3776C12.885 22.1099 11.3619 19.6915 13.5773 17.873C16.4573 15.5007 15.7096 12.8884 14.9342 11.873L10.8819 5.91915C10.7435 5.73454 9.50654 4.073 7.94654 4.073C7.55885 4.073 7.18039 4.18377 6.83885 4.37761C6.35885 4.61761 2.82346 6.473 1.41115 10.4976C0.368077 13.4976 0.765 16.8853 2.60192 20.5868C7.98346 31.3868 23.1865 41.1622 23.8327 41.5776C23.8696 41.5961 23.9065 41.6238 23.9527 41.6422C24.0912 41.7068 27.5527 43.2299 31.1804 43.2299C34.2727 43.2299 36.6358 42.0945 38.0112 39.9345C39.6081 37.433 40.0973 35.4493 39.4696 34.0278ZM36.4604 38.9376C35.4173 40.5622 33.645 41.3838 31.1804 41.3838C28.1988 41.3838 25.2173 40.1745 24.765 39.9807C23.7035 39.2976 9.24808 29.7807 4.26346 19.7653C2.65731 16.5345 2.27885 13.6361 3.14654 11.1253C4.365 7.62684 7.63269 6.04838 7.66962 6.02992C7.69731 6.01146 7.73423 6.00223 7.76192 5.98377C7.82654 5.93761 7.88192 5.91915 7.94654 5.91915C8.37116 5.91915 9.05423 6.54684 9.36808 6.98069L13.4296 12.9438C13.6327 13.2207 14.5281 14.6976 12.405 16.4422C9.55269 18.7961 10.5958 22.0361 11.5927 23.4853C11.9896 23.9653 15.4788 28.2115 16.0881 28.8115L16.2542 28.9776C19.0973 31.9407 21.4419 33.3899 23.3896 33.3899C24.6265 33.3899 25.6604 32.7899 26.3804 31.6638C26.9804 30.7315 27.9496 29.6238 29.1404 29.6238C29.805 29.6238 30.2758 29.9561 30.3312 30.0022L36.7373 34.0822C36.8481 34.1561 36.9589 34.193 37.0881 34.2207C37.0881 34.2207 37.5773 34.3222 37.7804 34.7838C37.9465 35.153 38.1496 36.2976 36.4604 38.9376Z" fill="url(#paint0_linear_4508_5612)"/>
    <path d="M39.2276 32.1087C39.0456 32.1085 38.8677 32.0545 38.7163 31.9534C38.5649 31.8524 38.4467 31.7089 38.3767 31.5409C38.3066 31.3729 38.2878 31.1879 38.3226 31.0092C38.3574 30.8306 38.4442 30.6662 38.5722 30.5367C41.6267 27.449 43.3094 23.3718 43.3094 19.0564C43.3094 9.9918 35.8325 2.61641 26.6423 2.61641C22.3851 2.61641 18.3328 4.19857 15.2331 7.07026C15.1447 7.1552 15.0403 7.22169 14.9259 7.26584C14.8116 7.31 14.6896 7.33093 14.567 7.32741C14.4445 7.3239 14.3239 7.29601 14.2122 7.24538C14.1006 7.19474 14.0001 7.12238 13.9168 7.0325C13.8334 6.94263 13.7688 6.83705 13.7266 6.72193C13.6845 6.6068 13.6657 6.48444 13.6714 6.36198C13.6771 6.23952 13.7071 6.11942 13.7597 6.00869C13.8123 5.89795 13.8864 5.7988 13.9777 5.71703C17.4222 2.52648 21.9472 0.758706 26.6423 0.769335C36.8516 0.769335 45.1556 8.97272 45.1556 19.0555C45.1556 23.8601 43.2836 28.397 39.8848 31.8346C39.799 31.9216 39.6966 31.9906 39.5838 32.0375C39.4709 32.0844 39.3498 32.1093 39.2276 32.1087Z" fill="url(#paint1_linear_4508_5612)"/>
    <path d="M26.6903 6.99253C26.4473 6.99255 26.214 6.89669 26.0412 6.72577C25.8684 6.55485 25.7699 6.32266 25.7673 6.07961L25.7193 1.7033C25.7168 1.45864 25.8116 1.22301 25.9828 1.0482C26.1539 0.873378 26.3875 0.773675 26.6322 0.770996H26.6414C26.8843 0.770979 27.1175 0.866709 27.2902 1.03743C27.463 1.20815 27.5616 1.44011 27.5645 1.683L27.6134 6.06023C27.6159 6.30489 27.5211 6.54052 27.3499 6.71533C27.1787 6.89015 26.9452 6.98985 26.7005 6.99253H26.6913H26.6903ZM39.6993 20.0282C39.578 20.0288 39.4579 20.0056 39.3457 19.9597C39.2334 19.9139 39.1313 19.8464 39.0452 19.7611C38.9591 19.6758 38.8906 19.5744 38.8436 19.4627C38.7967 19.3509 38.7722 19.231 38.7716 19.1098C38.771 18.9885 38.7942 18.8684 38.8401 18.7562C38.8859 18.6439 38.9534 18.5418 39.0387 18.4557C39.124 18.3696 39.2254 18.3011 39.3371 18.2541C39.4489 18.2072 39.5688 18.1827 39.69 18.1821L44.2223 18.1331H44.2325C44.4773 18.1319 44.7126 18.228 44.8866 18.4002C45.0605 18.5725 45.159 18.8068 45.1602 19.0516C45.1614 19.2964 45.0653 19.5317 44.8931 19.7057C44.7208 19.8797 44.4865 19.9781 44.2417 19.9793L39.7094 20.0282H39.6993ZM18.4768 21.483V20.5904L19.6343 19.4818C22.4193 16.8667 23.6774 15.4765 23.694 13.8538C23.694 12.7627 23.1568 11.7528 21.5294 11.7528C20.5399 11.7528 19.7183 12.2485 19.2143 12.6621L18.7454 11.6365C19.6154 10.9241 20.7068 10.5376 21.8313 10.5436C24.1805 10.5436 25.171 12.1332 25.171 13.6719C25.171 15.6575 23.7116 17.2627 21.4122 19.4485L20.5399 20.2424V20.2756H25.4387V21.4839L18.4768 21.483ZM33.0356 17.4122V10.7282H31.4387L26.574 17.5959V18.5559H31.6417V21.4821H33.0356V18.5559H34.5587V17.4113H33.0356V17.4122ZM31.6417 13.8205V17.4113H28.0694V17.3845L30.7371 13.7199C31.0417 13.2307 31.3094 12.7599 31.6417 12.1322H31.6971C31.6602 12.6953 31.6417 13.2575 31.6417 13.8205Z" fill="url(#paint2_linear_4508_5612)"/>
    <defs>
    <linearGradient id="paint0_linear_4508_5612" x1="0.841309" y1="23.6498" x2="39.7344" y2="23.6498" gradientUnits="userSpaceOnUse">
    <stop stop-color="#8E2DE2"/>
    <stop offset="1" stop-color="#4A00E0"/>
    </linearGradient>
    <linearGradient id="paint1_linear_4508_5612" x1="13.6678" y1="16.4377" x2="45.1556" y2="16.4377" gradientUnits="userSpaceOnUse">
    <stop stop-color="#8E2DE2"/>
    <stop offset="1" stop-color="#4A00E0"/>
    </linearGradient>
    <linearGradient id="paint2_linear_4508_5612" x1="18.4746" y1="11.1266" x2="45.1602" y2="11.1266" gradientUnits="userSpaceOnUse">
    <stop stop-color="#8E2DE2"/>
    <stop offset="1" stop-color="#4A00E0"/>
    </linearGradient>
    </defs>
    </svg>
    