<svg width="62" height="29" viewBox="0 0 62 29" fill="none" xmlns="http://www.w3.org/2000/svg">
    <path d="M54.2128 10.1843L54.2128 10.1844C54.1203 10.7455 54.4945 11.2767 55.0492 11.3707C57.3641 11.7627 59.0453 13.7746 59.0453 16.1575C59.0453 16.7269 59.5001 17.1883 60.064 17.1883C60.6279 17.1883 61.0828 16.7269 61.0828 16.1575C61.0828 12.7647 58.6874 9.89636 55.3857 9.338C54.8274 9.23993 54.3053 9.62448 54.2128 10.1843Z" fill="#666666" stroke="#666666" stroke-width="0.1"/>
    <path d="M59.045 18.1173C59.045 18.6867 59.4998 19.148 60.0637 19.148C60.6276 19.148 61.0825 18.6867 61.0825 18.1173V16.1577C61.0825 15.5883 60.6276 15.1269 60.0637 15.1269C59.4998 15.1269 59.045 15.5883 59.045 16.1577V18.1173Z" fill="#666666" stroke="#666666" stroke-width="0.1"/>
    <path d="M5.66218 23.6394C6.00006 23.184 5.90862 22.5389 5.45848 22.1977L1.57962 19.2554C1.12807 18.9128 0.490036 19.0079 0.153941 19.4616C-0.183912 19.917 -0.0924647 20.562 0.35765 20.9033C0.357654 20.9033 0.357657 20.9033 0.35766 20.9033L4.23651 23.8456C4.41985 23.9848 4.63495 24.0519 4.84702 24.0519C5.15791 24.0519 5.46263 23.9084 5.66218 23.6394ZM5.66218 23.6394L5.62202 23.6096L5.66218 23.6394C5.66218 23.6394 5.66218 23.6394 5.66218 23.6394ZM60.0129 23.0212C60.0129 23.5905 60.4677 24.0519 61.0316 24.0519C61.5955 24.0519 62.0504 23.5905 62.0504 23.0212V18.1173C62.0504 17.5479 61.5955 17.0865 61.0316 17.0865H59.0941C58.5302 17.0865 58.0754 17.5479 58.0754 18.1173C58.0754 18.6867 58.5302 19.1481 59.0941 19.1481H60.0129V23.0212ZM19.2068 24.0519H42.793C43.3569 24.0519 43.8117 23.5905 43.8117 23.0212C43.8117 22.4518 43.3569 21.9904 42.793 21.9904H19.2068C18.6429 21.9904 18.1881 22.4518 18.1881 23.0212C18.1881 23.5905 18.6429 24.0519 19.2068 24.0519Z" fill="#666666" stroke="#666666" stroke-width="0.1"/>
    <path d="M-0.05 20.0789C-0.05 20.6483 0.404838 21.1097 0.96875 21.1097C1.53266 21.1097 1.9875 20.6483 1.9875 20.0789V8.30578C1.9875 7.73638 1.53266 7.27501 0.96875 7.27501C0.404838 7.27501 -0.05 7.73638 -0.05 8.30578V20.0789Z" fill="#666666" stroke="#666666" stroke-width="0.1"/>
    <path d="M0.96875 9.33655H5.81444C6.37835 9.33655 6.83319 8.87518 6.83319 8.30578C6.83319 7.73638 6.37835 7.27501 5.81444 7.27501H0.96875C0.404838 7.27501 -0.05 7.73638 -0.05 8.30578C-0.05 8.87518 0.404838 9.33655 0.96875 9.33655Z" fill="#666666" stroke="#666666" stroke-width="0.1"/>
    <path d="M43.8879 10.0582L43.8881 10.0583C44.0817 10.2327 44.3243 10.3183 44.5638 10.3183C44.8451 10.3183 45.1254 10.2007 45.326 9.97176C45.6995 9.54622 45.662 8.89507 45.2414 8.51772C45.0557 8.35051 42.7724 6.32381 39.1711 4.33859C35.5696 2.35332 30.6466 0.407703 25.183 0.407703C14.2966 0.407703 5.55651 7.20335 5.18904 7.49271L5.18899 7.49275C4.74505 7.84323 4.66579 8.48925 5.01078 8.93846L5.01083 8.93852C5.35714 9.38813 5.9952 9.46763 6.4404 9.11903C6.52472 9.05306 14.9915 2.46924 25.183 2.46924C30.2479 2.46924 34.9029 4.34645 38.3039 6.23524C41.7047 8.12383 43.8478 10.0218 43.8879 10.0582Z" fill="#666666" stroke="#666666" stroke-width="0.1"/>
    <path d="M55.1204 11.3802L55.1209 11.3802C55.1546 11.3832 55.1882 11.3853 55.2212 11.3853C55.7403 11.3853 56.182 10.9869 56.2339 10.4555C56.2898 9.89015 55.8809 9.38467 55.3201 9.32893L44.6649 8.26578L44.6649 8.26578L44.6643 8.26573C44.0952 8.21522 43.6073 8.62491 43.5513 9.19036C43.4954 9.75576 43.9043 10.2613 44.4651 10.317L55.1204 11.3802Z" fill="#666666" stroke="#666666" stroke-width="0.1"/>
    <path d="M23.2539 10.3179H44.5645C45.1284 10.3179 45.5832 9.85656 45.5832 9.28717C45.5832 8.71777 45.1284 8.2564 44.5645 8.2564H23.2539C22.69 8.2564 22.2352 8.71777 22.2352 9.28717C22.2352 9.85656 22.69 10.3179 23.2539 10.3179Z" fill="#666666" stroke="#666666" stroke-width="0.1"/>
    <path d="M13.0202 3.42011L13.0201 3.42009C12.5053 3.18269 11.9041 3.41218 11.6701 3.92938C11.4361 4.44637 11.6606 5.05862 12.1722 5.29491L22.8303 10.2242C22.8303 10.2242 22.8303 10.2242 22.8304 10.2242C22.9679 10.2882 23.1117 10.3181 23.2534 10.3181C23.6408 10.3181 24.0095 10.0942 24.1805 9.71594L24.1806 9.71592C24.4145 9.19797 24.19 8.58672 23.6784 8.35043L13.0202 3.42011Z" fill="#666666" stroke="#666666" stroke-width="0.1"/>
    <path d="M22.2351 9.28721C22.2351 9.85661 22.69 10.318 23.2539 10.318C23.8178 10.318 24.2726 9.85661 24.2726 9.28721V1.52148C24.2726 0.953097 23.8178 0.49071 23.2539 0.49071C22.6899 0.49071 22.2351 0.953097 22.2351 1.52148V9.28721ZM5.7625 21.5498C5.7625 25.6333 9.04318 28.9555 13.0781 28.9555C17.1131 28.9555 20.3938 25.6333 20.3938 21.5498C20.3938 17.4663 17.1131 14.144 13.0781 14.144C9.04318 14.144 5.7625 17.4663 5.7625 21.5498ZM7.8 21.5498C7.8 18.6031 10.1691 16.2055 13.0781 16.2055C15.9872 16.2055 18.3563 18.6031 18.3563 21.5498C18.3563 24.4964 15.9872 26.894 13.0781 26.894C10.1691 26.894 7.8 24.4964 7.8 21.5498Z" fill="#666666" stroke="#666666" stroke-width="0.1"/>
    <path d="M9.6375 21.55C9.6375 23.4699 11.1802 25.0327 13.0781 25.0327C14.976 25.0327 16.5188 23.4699 16.5188 21.55C16.5188 19.6301 14.976 18.0673 13.0781 18.0673C11.1802 18.0673 9.6375 19.6301 9.6375 21.55ZM11.675 21.55C11.675 20.7659 12.3052 20.1288 13.0781 20.1288C13.8511 20.1288 14.4813 20.7659 14.4813 21.55C14.4813 22.334 13.8511 22.9711 13.0781 22.9711C12.3052 22.9711 11.675 22.334 11.675 21.55ZM41.6053 21.55C41.6053 25.6335 44.886 28.9558 48.9209 28.9558C52.9559 28.9558 56.2365 25.6335 56.2365 21.55C56.2365 17.4665 52.9559 14.1442 48.9209 14.1442C44.886 14.1442 41.6053 17.4665 41.6053 21.55ZM43.6428 21.55C43.6428 18.6033 46.0119 16.2058 48.9209 16.2058C51.83 16.2058 54.199 18.6033 54.199 21.55C54.199 24.4966 51.83 26.8942 48.9209 26.8942C46.0119 26.8942 43.6428 24.4966 43.6428 21.55Z" fill="#666666" stroke="#666666" stroke-width="0.1"/>
    <path d="M45.4764 21.55C45.4764 23.4699 47.0192 25.0327 48.9171 25.0327C50.8149 25.0327 52.3577 23.4699 52.3577 21.55C52.3577 19.6301 50.8149 18.0673 48.9171 18.0673C47.0192 18.0673 45.4764 19.6301 45.4764 21.55ZM47.5139 21.55C47.5139 20.7659 48.1441 20.1288 48.9171 20.1288C49.69 20.1288 50.3202 20.7659 50.3202 21.55C50.3202 22.3341 49.69 22.9712 48.9171 22.9712C48.1441 22.9712 47.5139 22.3341 47.5139 21.55ZM4.84766 24.0519H6.95081C7.51472 24.0519 7.96956 23.5906 7.96956 23.0212C7.96956 22.4518 7.51472 21.9904 6.95081 21.9904H4.84766C4.28374 21.9904 3.82891 22.4518 3.82891 23.0212C3.82891 23.5906 4.28374 24.0519 4.84766 24.0519ZM55.0483 24.0519H61.0313C61.5952 24.0519 62.05 23.5906 62.05 23.0212C62.05 22.4518 61.5952 21.9904 61.0313 21.9904H55.0483C54.4844 21.9904 54.0295 22.4518 54.0295 23.0212C54.0295 23.5906 54.4844 24.0519 55.0483 24.0519Z" fill="#666666" stroke="#666666" stroke-width="0.1"/>
    </svg>
    