<svg width="48" height="45" viewBox="0 0 48 45" fill="none" xmlns="http://www.w3.org/2000/svg">
    <path d="M25.5874 2.54787V2.71005L25.6386 2.86391L29.2989 13.8518C29.5218 14.6136 29.9964 15.2771 30.6432 15.7397C31.2908 16.2029 32.0748 16.4392 32.8709 16.4146H44.686H44.8232L44.9553 16.3777C45.3585 16.2649 45.7903 16.3101 46.1584 16.5019C46.5259 16.6933 46.7975 17.0136 46.9229 17.3902C47.0482 17.7663 47.0201 18.175 46.8433 18.5324C46.6662 18.8906 46.3511 19.1734 45.9588 19.3149L45.8302 19.3613L45.7188 19.4405L36.1619 26.2345C35.5048 26.6742 35.011 27.3179 34.7624 28.0677C34.5139 28.8175 34.526 29.6272 34.7964 30.369L38.4318 41.3602L38.4752 41.4913L38.5525 41.6058C38.7768 41.938 38.8597 42.3391 38.7877 42.7262C38.7156 43.1138 38.4923 43.4644 38.1575 43.7013C37.822 43.9387 37.4025 44.0417 36.9874 43.9846C36.5725 43.9275 36.2012 43.7161 35.9485 43.4012L35.8614 43.2927L35.748 43.2121L26.1915 36.4184C25.5615 35.9422 24.7908 35.6856 24 35.6856C23.2094 35.6856 22.4389 35.9421 21.809 36.4181L12.227 43.2114L12.1383 43.2743L12.0652 43.3547C11.8032 43.6431 11.4374 43.8295 11.0369 43.8718C10.6363 43.9142 10.236 43.8087 9.91435 43.5796C9.59322 43.351 9.37502 43.0172 9.29576 42.6464C9.21658 42.2759 9.28027 41.8888 9.47727 41.559L9.53366 41.4646L9.56818 41.3602L13.2036 30.3689C13.474 29.6271 13.4861 28.8175 13.2376 28.0677C12.989 27.3179 12.4952 26.6743 11.8381 26.2345L2.28117 19.4405L2.16975 19.3613L2.04117 19.3149C1.64886 19.1734 1.3338 18.8906 1.15666 18.5324C0.979865 18.175 0.951819 17.7663 1.07706 17.3902C1.20248 17.0136 1.47411 16.6933 1.84161 16.5019C2.20969 16.3101 2.64153 16.2649 3.0447 16.3777L3.17682 16.4146H3.314H15.1291C15.9252 16.4392 16.7092 16.2029 17.3568 15.7397C18.0039 15.2768 18.4786 14.613 18.7015 13.8507L22.336 2.86189L22.3866 2.70895V2.54787C22.3866 2.14401 22.5502 1.75246 22.8481 1.46054C23.1467 1.16793 23.556 1 23.987 1C24.418 1 24.8272 1.16793 25.1259 1.46054C25.4238 1.75246 25.5874 2.14401 25.5874 2.54787Z" stroke="#666666" stroke-width="2"/>
    </svg>
    