<svg width="152" height="139" viewBox="0 0 152 139" fill="none" xmlns="http://www.w3.org/2000/svg">
    <path fill-rule="evenodd" clip-rule="evenodd"
        d="M148.284 24.7705C147.306 24.7705 146.347 24.3747 145.656 23.6816C144.963 22.9904 144.567 22.0334 144.567 21.0542C144.567 20.075 144.963 19.118 145.656 18.4268C146.347 17.7337 147.306 17.3379 148.284 17.3379C149.263 17.3379 150.22 17.7337 150.913 18.4268C151.604 19.118 152 20.075 152 21.0542C152 22.0334 151.604 22.9904 150.913 23.6816C150.22 24.3747 149.263 24.7705 148.284 24.7705Z"
        fill="white" fill-opacity="0.1" />
    <path fill-rule="evenodd" clip-rule="evenodd"
        d="M107.414 24.7705H107.395C105.347 24.7705 103.688 23.1056 103.688 21.0542C103.688 19.0028 105.347 17.3379 107.395 17.3379H107.414C109.46 17.3379 111.121 19.0028 111.121 21.0542C111.121 23.1056 109.46 24.7705 107.414 24.7705Z"
        fill="white" fill-opacity="0.1" />
    <path fill-rule="evenodd" clip-rule="evenodd"
        d="M127.234 24.7705H127.215C125.169 24.7705 123.508 23.1056 123.508 21.0542C123.508 19.0028 125.169 17.3379 127.215 17.3379H127.234C129.28 17.3379 130.941 19.0028 130.941 21.0542C130.941 23.1056 129.28 24.7705 127.234 24.7705Z"
        fill="white" fill-opacity="0.1" />
    <path fill-rule="evenodd" clip-rule="evenodd"
        d="M86.345 24.7705C85.3676 24.7705 84.4088 24.3747 83.7175 23.6816C83.0244 22.9904 82.6287 22.0334 82.6287 21.0542C82.6287 20.075 83.0244 19.118 83.7175 18.4268C84.4088 17.7337 85.3676 17.3379 86.345 17.3379C87.3242 17.3379 88.2812 17.7337 88.9743 18.4268C89.6655 19.118 90.0613 20.075 90.0613 21.0542C90.0613 22.0334 89.6655 22.9904 88.9743 23.6816C88.2812 24.3747 87.3242 24.7705 86.345 24.7705Z"
        fill="white" fill-opacity="0.1" />
    <path fill-rule="evenodd" clip-rule="evenodd"
        d="M65.2861 24.7705C64.3069 24.7705 63.3499 24.3747 62.6568 23.6816C61.9656 22.9904 61.5698 22.0334 61.5698 21.0542C61.5698 20.075 61.9656 19.118 62.6568 18.4268C63.3499 17.7337 64.3069 17.3379 65.2861 17.3379C66.2635 17.3379 67.2223 17.7337 67.9136 18.4268C68.6067 19.118 69.0024 20.075 69.0024 21.0542C69.0024 22.0334 68.6067 22.9904 67.9136 23.6816C67.2223 24.3747 66.2635 24.7705 65.2861 24.7705Z"
        fill="white" fill-opacity="0.1" />
    <path fill-rule="evenodd" clip-rule="evenodd"
        d="M24.4158 24.7705H24.3972C22.3491 24.7705 20.6902 23.1056 20.6902 21.0542C20.6902 19.0028 22.3491 17.3379 24.3972 17.3379H24.4158C26.462 17.3379 28.1228 19.0028 28.1228 21.0542C28.1228 23.1056 26.462 24.7705 24.4158 24.7705Z"
        fill="white" fill-opacity="0.1" />
    <path fill-rule="evenodd" clip-rule="evenodd"
        d="M45.4748 24.7705H45.4563C43.41 24.7705 41.7493 23.1056 41.7493 21.0542C41.7493 19.0028 43.41 17.3379 45.4563 17.3379H45.4748C47.5211 17.3379 49.1819 19.0028 49.1819 21.0542C49.1819 23.1056 47.5211 24.7705 45.4748 24.7705Z"
        fill="white" fill-opacity="0.1" />
    <mask id="mask0_4522_6071" style="mask-type:luminance" maskUnits="userSpaceOnUse" x="-1" y="17"
        width="9" height="9">
        <path fill-rule="evenodd" clip-rule="evenodd"
            d="M7.92749 17.075H-0.000237942V25.0031H7.92749V17.075Z" fill="white" />
    </mask>
    <g mask="url(#mask0_4522_6071)">
        <path fill-rule="evenodd" clip-rule="evenodd"
            d="M3.96343 25.0031C2.92088 25.0031 1.89815 24.5809 1.16084 23.8416C0.421538 23.1043 -0.00063467 22.0835 -0.00063467 21.039C-0.00063467 19.9945 0.421538 18.9737 1.16084 18.2364C1.89815 17.4971 2.92088 17.075 3.96343 17.075C5.00796 17.075 6.0287 17.4971 6.768 18.2364C7.50532 18.9737 7.92749 19.9945 7.92749 21.039C7.92749 22.0835 7.50532 23.1043 6.768 23.8416C6.0287 24.5809 5.00796 25.0031 3.96343 25.0031Z"
            fill="white" fill-opacity="0.1" />
    </g>
    <path fill-rule="evenodd" clip-rule="evenodd"
        d="M148.284 8.6665C147.306 8.6665 146.347 8.27072 145.656 7.57762C144.963 6.88639 144.567 5.92758 144.567 4.95019C144.567 3.97095 144.963 3.014 145.656 2.32091C146.347 1.62967 147.306 1.23389 148.284 1.23389C149.263 1.23389 150.22 1.62967 150.913 2.32091C151.604 3.014 152 3.97095 152 4.95019C152 5.92758 151.604 6.88639 150.913 7.57762C150.22 8.27072 149.263 8.6665 148.284 8.6665Z"
        fill="white" fill-opacity="0.1" />
    <path fill-rule="evenodd" clip-rule="evenodd"
        d="M107.414 8.6665H107.395C105.347 8.6665 103.688 7.0016 103.688 4.95019C103.688 2.89879 105.347 1.23389 107.395 1.23389H107.414C109.46 1.23389 111.121 2.89879 111.121 4.95019C111.121 7.0016 109.46 8.6665 107.414 8.6665Z"
        fill="white" fill-opacity="0.1" />
    <path fill-rule="evenodd" clip-rule="evenodd"
        d="M127.234 8.6665H127.215C125.169 8.6665 123.508 7.0016 123.508 4.95019C123.508 2.89879 125.169 1.23389 127.215 1.23389H127.234C129.28 1.23389 130.941 2.89879 130.941 4.95019C130.941 7.0016 129.28 8.6665 127.234 8.6665Z"
        fill="white" fill-opacity="0.1" />
    <path fill-rule="evenodd" clip-rule="evenodd"
        d="M86.345 8.6665C85.3676 8.6665 84.4088 8.27072 83.7175 7.57762C83.0244 6.88639 82.6287 5.92758 82.6287 4.95019C82.6287 3.97095 83.0244 3.014 83.7175 2.32091C84.4088 1.62967 85.3676 1.23389 86.345 1.23389C87.3242 1.23389 88.2812 1.62967 88.9743 2.32091C89.6655 3.014 90.0613 3.97095 90.0613 4.95019C90.0613 5.92758 89.6655 6.88639 88.9743 7.57762C88.2812 8.27072 87.3242 8.6665 86.345 8.6665Z"
        fill="white" fill-opacity="0.1" />
    <path fill-rule="evenodd" clip-rule="evenodd"
        d="M65.2861 8.6665C64.3069 8.6665 63.3499 8.27072 62.6568 7.57762C61.9656 6.88639 61.5698 5.92758 61.5698 4.95019C61.5698 3.97095 61.9656 3.014 62.6568 2.32091C63.3499 1.62967 64.3069 1.23389 65.2861 1.23389C66.2635 1.23389 67.2223 1.62967 67.9136 2.32091C68.6067 3.014 69.0024 3.97095 69.0024 4.95019C69.0024 5.92758 68.6067 6.88639 67.9136 7.57762C67.2223 8.27072 66.2635 8.6665 65.2861 8.6665Z"
        fill="white" fill-opacity="0.1" />
    <path fill-rule="evenodd" clip-rule="evenodd"
        d="M24.4158 8.6665H24.3972C22.3491 8.6665 20.6902 7.0016 20.6902 4.95019C20.6902 2.89879 22.3491 1.23389 24.3972 1.23389H24.4158C26.462 1.23389 28.1228 2.89879 28.1228 4.95019C28.1228 7.0016 26.462 8.6665 24.4158 8.6665Z"
        fill="white" fill-opacity="0.1" />
    <path fill-rule="evenodd" clip-rule="evenodd"
        d="M45.4748 8.6665H45.4563C43.41 8.6665 41.7493 7.0016 41.7493 4.95019C41.7493 2.89879 43.41 1.23389 45.4563 1.23389H45.4748C47.5211 1.23389 49.1819 2.89879 49.1819 4.95019C49.1819 7.0016 47.5211 8.6665 45.4748 8.6665Z"
        fill="white" fill-opacity="0.1" />
    <mask id="mask1_4522_6071" style="mask-type:luminance" maskUnits="userSpaceOnUse" x="-1" y="0"
        width="9" height="9">
        <path fill-rule="evenodd" clip-rule="evenodd"
            d="M7.92749 0.543945H-0.000237942V8.47207H7.92749V0.543945Z" fill="white" />
    </mask>
    <g mask="url(#mask1_4522_6071)">
        <path fill-rule="evenodd" clip-rule="evenodd"
            d="M3.96343 8.47207C2.92088 8.47207 1.89815 8.0499 1.16084 7.3106C0.421538 6.57328 -0.00063467 5.55056 -0.00063467 4.50801C-0.00063467 3.46348 0.421538 2.44273 1.16084 1.70343C1.89815 0.966118 2.92088 0.543945 3.96343 0.543945C5.00796 0.543945 6.0287 0.966118 6.768 1.70343C7.50532 2.44273 7.92749 3.46348 7.92749 4.50801C7.92749 5.55056 7.50532 6.57328 6.768 7.3106C6.0287 8.0499 5.00796 8.47207 3.96343 8.47207Z"
            fill="white" fill-opacity="0.1" />
    </g>
    <path fill-rule="evenodd" clip-rule="evenodd"
        d="M148.284 40.8744C147.306 40.8744 146.347 40.4786 145.656 39.7855C144.963 39.0943 144.567 38.1373 144.567 37.1581C144.567 36.1807 144.963 35.2219 145.656 34.5307C146.347 33.8376 147.306 33.4418 148.284 33.4418C149.263 33.4418 150.22 33.8376 150.913 34.5307C151.604 35.2219 152 36.1807 152 37.1581C152 38.1373 151.604 39.0943 150.913 39.7855C150.22 40.4786 149.263 40.8744 148.284 40.8744Z"
        fill="white" fill-opacity="0.1" />
    <path fill-rule="evenodd" clip-rule="evenodd"
        d="M107.414 40.8744H107.395C105.347 40.8744 103.688 39.2095 103.688 37.1581C103.688 35.1067 105.347 33.4418 107.395 33.4418H107.414C109.46 33.4418 111.121 35.1067 111.121 37.1581C111.121 39.2095 109.46 40.8744 107.414 40.8744Z"
        fill="white" fill-opacity="0.1" />
    <path fill-rule="evenodd" clip-rule="evenodd"
        d="M127.234 40.8744H127.215C125.169 40.8744 123.508 39.2095 123.508 37.1581C123.508 35.1067 125.169 33.4418 127.215 33.4418H127.234C129.28 33.4418 130.941 35.1067 130.941 37.1581C130.941 39.2095 129.28 40.8744 127.234 40.8744Z"
        fill="white" fill-opacity="0.1" />
    <path fill-rule="evenodd" clip-rule="evenodd"
        d="M86.345 40.8744C85.3676 40.8744 84.4088 40.4786 83.7175 39.7855C83.0244 39.0943 82.6287 38.1373 82.6287 37.1581C82.6287 36.1807 83.0244 35.2219 83.7175 34.5307C84.4088 33.8376 85.3676 33.4418 86.345 33.4418C87.3242 33.4418 88.2812 33.8376 88.9743 34.5307C89.6655 35.2219 90.0613 36.1807 90.0613 37.1581C90.0613 38.1373 89.6655 39.0943 88.9743 39.7855C88.2812 40.4786 87.3242 40.8744 86.345 40.8744Z"
        fill="white" fill-opacity="0.1" />
    <path fill-rule="evenodd" clip-rule="evenodd"
        d="M65.2861 40.8744C64.3069 40.8744 63.3499 40.4786 62.6568 39.7855C61.9656 39.0943 61.5698 38.1373 61.5698 37.1581C61.5698 36.1807 61.9656 35.2219 62.6568 34.5307C63.3499 33.8376 64.3069 33.4418 65.2861 33.4418C66.2635 33.4418 67.2223 33.8376 67.9136 34.5307C68.6067 35.2219 69.0024 36.1807 69.0024 37.1581C69.0024 38.1373 68.6067 39.0943 67.9136 39.7855C67.2223 40.4786 66.2635 40.8744 65.2861 40.8744Z"
        fill="white" fill-opacity="0.1" />
    <path fill-rule="evenodd" clip-rule="evenodd"
        d="M24.4158 40.8744H24.3972C22.3491 40.8744 20.6902 39.2095 20.6902 37.1581C20.6902 35.1067 22.3491 33.4418 24.3972 33.4418H24.4158C26.462 33.4418 28.1228 35.1067 28.1228 37.1581C28.1228 39.2095 26.462 40.8744 24.4158 40.8744Z"
        fill="white" fill-opacity="0.1" />
    <path fill-rule="evenodd" clip-rule="evenodd"
        d="M45.4748 40.8744H45.4563C43.41 40.8744 41.7493 39.2095 41.7493 37.1581C41.7493 35.1067 43.41 33.4418 45.4563 33.4418H45.4748C47.5211 33.4418 49.1819 35.1067 49.1819 37.1581C49.1819 39.2095 47.5211 40.8744 45.4748 40.8744Z"
        fill="white" fill-opacity="0.1" />
    <mask id="mask2_4522_6071" style="mask-type:luminance" maskUnits="userSpaceOnUse" x="-1" y="33"
        width="9" height="9">
        <path fill-rule="evenodd" clip-rule="evenodd"
            d="M7.92749 33.6056H-0.000237942V41.5337H7.92749V33.6056Z" fill="white" />
    </mask>
    <g mask="url(#mask2_4522_6071)">
        <path fill-rule="evenodd" clip-rule="evenodd"
            d="M3.96343 41.5337C2.92088 41.5337 1.89815 41.1115 1.16084 40.3722C0.421538 39.6349 -0.00063467 38.6142 -0.00063467 37.5697C-0.00063467 36.5271 0.421538 35.5044 1.16084 34.7671C1.89815 34.0278 2.92088 33.6056 3.96343 33.6056C5.00796 33.6056 6.0287 34.0278 6.768 34.7671C7.50532 35.5044 7.92749 36.5271 7.92749 37.5697C7.92749 38.6142 7.50532 39.6349 6.768 40.3722C6.0287 41.1115 5.00796 41.5337 3.96343 41.5337Z"
            fill="white" fill-opacity="0.1" />
    </g>
    <path fill-rule="evenodd" clip-rule="evenodd"
        d="M148.284 56.9784C147.306 56.9784 146.347 56.5826 145.656 55.8895C144.963 55.1983 144.567 54.2413 144.567 53.2621C144.567 52.2828 144.963 51.3259 145.656 50.6347C146.347 49.9416 147.306 49.5458 148.284 49.5458C149.263 49.5458 150.22 49.9416 150.913 50.6347C151.604 51.3259 152 52.2828 152 53.2621C152 54.2413 151.604 55.1983 150.913 55.8895C150.22 56.5826 149.263 56.9784 148.284 56.9784Z"
        fill="white" fill-opacity="0.1" />
    <path fill-rule="evenodd" clip-rule="evenodd"
        d="M107.414 56.9784H107.395C105.347 56.9784 103.688 55.3135 103.688 53.2621C103.688 51.2107 105.347 49.5458 107.395 49.5458H107.414C109.46 49.5458 111.121 51.2107 111.121 53.2621C111.121 55.3135 109.46 56.9784 107.414 56.9784Z"
        fill="white" fill-opacity="0.1" />
    <path fill-rule="evenodd" clip-rule="evenodd"
        d="M127.234 56.9784H127.215C125.169 56.9784 123.508 55.3135 123.508 53.2621C123.508 51.2107 125.169 49.5458 127.215 49.5458H127.234C129.28 49.5458 130.941 51.2107 130.941 53.2621C130.941 55.3135 129.28 56.9784 127.234 56.9784Z"
        fill="white" fill-opacity="0.1" />
    <path fill-rule="evenodd" clip-rule="evenodd"
        d="M86.345 56.9784C85.3676 56.9784 84.4088 56.5826 83.7175 55.8895C83.0244 55.1983 82.6287 54.2413 82.6287 53.2621C82.6287 52.2828 83.0244 51.3259 83.7175 50.6347C84.4088 49.9416 85.3676 49.5458 86.345 49.5458C87.3242 49.5458 88.2812 49.9416 88.9743 50.6347C89.6655 51.3259 90.0613 52.2828 90.0613 53.2621C90.0613 54.2413 89.6655 55.1983 88.9743 55.8895C88.2812 56.5826 87.3242 56.9784 86.345 56.9784Z"
        fill="white" fill-opacity="0.1" />
    <path fill-rule="evenodd" clip-rule="evenodd"
        d="M65.2861 56.9784C64.3069 56.9784 63.3499 56.5826 62.6568 55.8895C61.9656 55.1983 61.5698 54.2413 61.5698 53.2621C61.5698 52.2828 61.9656 51.3259 62.6568 50.6347C63.3499 49.9416 64.3069 49.5458 65.2861 49.5458C66.2635 49.5458 67.2223 49.9416 67.9136 50.6347C68.6067 51.3259 69.0024 52.2828 69.0024 53.2621C69.0024 54.2413 68.6067 55.1983 67.9136 55.8895C67.2223 56.5826 66.2635 56.9784 65.2861 56.9784Z"
        fill="white" fill-opacity="0.1" />
    <path fill-rule="evenodd" clip-rule="evenodd"
        d="M24.4158 56.9784H24.3972C22.3491 56.9784 20.6902 55.3135 20.6902 53.2621C20.6902 51.2107 22.3491 49.5458 24.3972 49.5458H24.4158C26.462 49.5458 28.1228 51.2107 28.1228 53.2621C28.1228 55.3135 26.462 56.9784 24.4158 56.9784Z"
        fill="white" fill-opacity="0.1" />
    <path fill-rule="evenodd" clip-rule="evenodd"
        d="M45.4748 56.9784H45.4563C43.41 56.9784 41.7493 55.3135 41.7493 53.2621C41.7493 51.2107 43.41 49.5458 45.4563 49.5458H45.4748C47.5211 49.5458 49.1819 51.2107 49.1819 53.2621C49.1819 55.3135 47.5211 56.9784 45.4748 56.9784Z"
        fill="white" fill-opacity="0.1" />
    <mask id="mask3_4522_6071" style="mask-type:luminance" maskUnits="userSpaceOnUse" x="-1" y="50"
        width="9" height="9">
        <path fill-rule="evenodd" clip-rule="evenodd"
            d="M7.92749 50.1365H-0.000237942V58.0646H7.92749V50.1365Z" fill="white" />
    </mask>
    <g mask="url(#mask3_4522_6071)">
        <path fill-rule="evenodd" clip-rule="evenodd"
            d="M3.96343 58.0646C2.92088 58.0646 1.89815 57.6424 1.16084 56.9031C0.421538 56.1658 -0.00063467 55.1451 -0.00063467 54.1005C-0.00063467 53.056 0.421538 52.0353 1.16084 51.2979C1.89815 50.5586 2.92088 50.1365 3.96343 50.1365C5.00796 50.1365 6.0287 50.5586 6.768 51.2979C7.50532 52.0353 7.92749 53.056 7.92749 54.1005C7.92749 55.1451 7.50532 56.1658 6.768 56.9031C6.0287 57.6424 5.00796 58.0646 3.96343 58.0646Z"
            fill="white" fill-opacity="0.1" />
    </g>
    <path fill-rule="evenodd" clip-rule="evenodd"
        d="M148.284 74.3212C147.306 74.3212 146.347 73.9254 145.656 73.2323C144.963 72.5411 144.567 71.5841 144.567 70.6049C144.567 69.6275 144.963 68.6687 145.656 67.9774C146.347 67.2843 147.306 66.8885 148.284 66.8885C149.263 66.8885 150.22 67.2843 150.913 67.9774C151.604 68.6687 152 69.6275 152 70.6049C152 71.5841 151.604 72.5411 150.913 73.2323C150.22 73.9254 149.263 74.3212 148.284 74.3212Z"
        fill="white" fill-opacity="0.1" />
    <path fill-rule="evenodd" clip-rule="evenodd"
        d="M107.414 74.3212H107.395C105.347 74.3212 103.688 72.6563 103.688 70.6049C103.688 68.5535 105.347 66.8885 107.395 66.8885H107.414C109.46 66.8885 111.121 68.5535 111.121 70.6049C111.121 72.6563 109.46 74.3212 107.414 74.3212Z"
        fill="white" fill-opacity="0.1" />
    <path fill-rule="evenodd" clip-rule="evenodd"
        d="M127.234 74.3212H127.215C125.169 74.3212 123.508 72.6563 123.508 70.6049C123.508 68.5535 125.169 66.8885 127.215 66.8885H127.234C129.28 66.8885 130.941 68.5535 130.941 70.6049C130.941 72.6563 129.28 74.3212 127.234 74.3212Z"
        fill="white" fill-opacity="0.1" />
    <path fill-rule="evenodd" clip-rule="evenodd"
        d="M86.345 74.3212C85.3676 74.3212 84.4088 73.9254 83.7175 73.2323C83.0244 72.5411 82.6287 71.5841 82.6287 70.6049C82.6287 69.6275 83.0244 68.6687 83.7175 67.9774C84.4088 67.2843 85.3676 66.8885 86.345 66.8885C87.3242 66.8885 88.2812 67.2843 88.9743 67.9774C89.6655 68.6687 90.0613 69.6275 90.0613 70.6049C90.0613 71.5841 89.6655 72.5411 88.9743 73.2323C88.2812 73.9254 87.3242 74.3212 86.345 74.3212Z"
        fill="white" fill-opacity="0.1" />
    <path fill-rule="evenodd" clip-rule="evenodd"
        d="M65.2861 74.3212C64.3069 74.3212 63.3499 73.9254 62.6568 73.2323C61.9656 72.5411 61.5698 71.5841 61.5698 70.6049C61.5698 69.6275 61.9656 68.6687 62.6568 67.9774C63.3499 67.2843 64.3069 66.8885 65.2861 66.8885C66.2635 66.8885 67.2223 67.2843 67.9136 67.9774C68.6067 68.6687 69.0024 69.6275 69.0024 70.6049C69.0024 71.5841 68.6067 72.5411 67.9136 73.2323C67.2223 73.9254 66.2635 74.3212 65.2861 74.3212Z"
        fill="white" fill-opacity="0.1" />
    <path fill-rule="evenodd" clip-rule="evenodd"
        d="M24.4158 74.3212H24.3972C22.3491 74.3212 20.6902 72.6563 20.6902 70.6049C20.6902 68.5535 22.3491 66.8885 24.3972 66.8885H24.4158C26.462 66.8885 28.1228 68.5535 28.1228 70.6049C28.1228 72.6563 26.462 74.3212 24.4158 74.3212Z"
        fill="white" fill-opacity="0.1" />
    <path fill-rule="evenodd" clip-rule="evenodd"
        d="M45.4748 74.3212H45.4563C43.41 74.3212 41.7493 72.6563 41.7493 70.6049C41.7493 68.5535 43.41 66.8885 45.4563 66.8885H45.4748C47.5211 66.8885 49.1819 68.5535 49.1819 70.6049C49.1819 72.6563 47.5211 74.3212 45.4748 74.3212Z"
        fill="white" fill-opacity="0.1" />
    <mask id="mask4_4522_6071" style="mask-type:luminance" maskUnits="userSpaceOnUse" x="-1" y="65"
        width="9" height="9">
        <path fill-rule="evenodd" clip-rule="evenodd"
            d="M7.92749 65.9241H-0.000237942V73.8522H7.92749V65.9241Z" fill="white" />
    </mask>
    <g mask="url(#mask4_4522_6071)">
        <path fill-rule="evenodd" clip-rule="evenodd"
            d="M3.96343 73.8522C2.92088 73.8522 1.89815 73.43 1.16084 72.6907C0.421538 71.9534 -0.00063467 70.9327 -0.00063467 69.8881C-0.00063467 68.8456 0.421538 67.8229 1.16084 67.0855C1.89815 66.3462 2.92088 65.9241 3.96343 65.9241C5.00796 65.9241 6.0287 66.3462 6.768 67.0855C7.50532 67.8229 7.92749 68.8456 7.92749 69.8881C7.92749 70.9327 7.50532 71.9534 6.768 72.6907C6.0287 73.43 5.00796 73.8522 3.96343 73.8522Z"
            fill="white" fill-opacity="0.1" />
    </g>
    <path fill-rule="evenodd" clip-rule="evenodd"
        d="M148.284 90.4252C147.306 90.4252 146.347 90.0294 145.656 89.3382C144.963 88.6451 144.567 87.6881 144.567 86.7089C144.567 85.7315 144.963 84.7727 145.656 84.0814C146.347 83.3883 147.306 82.9926 148.284 82.9926C149.263 82.9926 150.22 83.3883 150.913 84.0814C151.604 84.7727 152 85.7315 152 86.7089C152 87.6881 151.604 88.6451 150.913 89.3382C150.22 90.0294 149.263 90.4252 148.284 90.4252Z"
        fill="white" fill-opacity="0.1" />
    <path fill-rule="evenodd" clip-rule="evenodd"
        d="M107.414 90.4252H107.395C105.347 90.4252 103.688 88.7603 103.688 86.7089C103.688 84.6575 105.347 82.9926 107.395 82.9926H107.414C109.46 82.9926 111.121 84.6575 111.121 86.7089C111.121 88.7603 109.46 90.4252 107.414 90.4252Z"
        fill="white" fill-opacity="0.1" />
    <path fill-rule="evenodd" clip-rule="evenodd"
        d="M127.234 90.4252H127.215C125.169 90.4252 123.508 88.7603 123.508 86.7089C123.508 84.6575 125.169 82.9926 127.215 82.9926H127.234C129.28 82.9926 130.941 84.6575 130.941 86.7089C130.941 88.7603 129.28 90.4252 127.234 90.4252Z"
        fill="white" fill-opacity="0.1" />
    <path fill-rule="evenodd" clip-rule="evenodd"
        d="M86.345 90.4252C85.3676 90.4252 84.4088 90.0294 83.7175 89.3382C83.0244 88.6451 82.6287 87.6881 82.6287 86.7089C82.6287 85.7315 83.0244 84.7727 83.7175 84.0814C84.4088 83.3883 85.3676 82.9926 86.345 82.9926C87.3242 82.9926 88.2812 83.3883 88.9743 84.0814C89.6655 84.7727 90.0613 85.7315 90.0613 86.7089C90.0613 87.6881 89.6655 88.6451 88.9743 89.3382C88.2812 90.0294 87.3242 90.4252 86.345 90.4252Z"
        fill="white" fill-opacity="0.1" />
    <path fill-rule="evenodd" clip-rule="evenodd"
        d="M65.2861 90.4252C64.3069 90.4252 63.3499 90.0294 62.6568 89.3382C61.9656 88.6451 61.5698 87.6881 61.5698 86.7089C61.5698 85.7315 61.9656 84.7727 62.6568 84.0814C63.3499 83.3883 64.3069 82.9926 65.2861 82.9926C66.2635 82.9926 67.2223 83.3883 67.9136 84.0814C68.6067 84.7727 69.0024 85.7315 69.0024 86.7089C69.0024 87.6881 68.6067 88.6451 67.9136 89.3382C67.2223 90.0294 66.2635 90.4252 65.2861 90.4252Z"
        fill="white" fill-opacity="0.1" />
    <path fill-rule="evenodd" clip-rule="evenodd"
        d="M24.4158 90.4252H24.3972C22.3491 90.4252 20.6902 88.7603 20.6902 86.7089C20.6902 84.6575 22.3491 82.9926 24.3972 82.9926H24.4158C26.462 82.9926 28.1228 84.6575 28.1228 86.7089C28.1228 88.7603 26.462 90.4252 24.4158 90.4252Z"
        fill="white" fill-opacity="0.1" />
    <path fill-rule="evenodd" clip-rule="evenodd"
        d="M45.4748 90.4252H45.4563C43.41 90.4252 41.7493 88.7603 41.7493 86.7089C41.7493 84.6575 43.41 82.9926 45.4563 82.9926H45.4748C47.5211 82.9926 49.1819 84.6575 49.1819 86.7089C49.1819 88.7603 47.5211 90.4252 45.4748 90.4252Z"
        fill="white" fill-opacity="0.1" />
    <mask id="mask5_4522_6071" style="mask-type:luminance" maskUnits="userSpaceOnUse" x="-1" y="82"
        width="9" height="9">
        <path fill-rule="evenodd" clip-rule="evenodd"
            d="M7.92749 82.4548H-0.000237942V90.383H7.92749V82.4548Z" fill="white" />
    </mask>
    <g mask="url(#mask5_4522_6071)">
        <path fill-rule="evenodd" clip-rule="evenodd"
            d="M3.96343 90.383C2.92088 90.383 1.89815 89.9608 1.16084 89.2235C0.421538 88.4842 -0.00063467 87.4634 -0.00063467 86.4189C-0.00063467 85.3763 0.421538 84.3536 1.16084 83.6163C1.89815 82.877 2.92088 82.4548 3.96343 82.4548C5.00796 82.4548 6.0287 82.877 6.768 83.6163C7.50532 84.3536 7.92749 85.3763 7.92749 86.4189C7.92749 87.4634 7.50532 88.4842 6.768 89.2235C6.0287 89.9608 5.00796 90.383 3.96343 90.383Z"
            fill="white" fill-opacity="0.1" />
    </g>
    <path fill-rule="evenodd" clip-rule="evenodd"
        d="M148.284 106.529C147.306 106.529 146.347 106.133 145.656 105.44C144.963 104.749 144.567 103.792 144.567 102.813C144.567 101.835 144.963 100.877 145.656 100.185C146.347 99.4923 147.306 99.0966 148.284 99.0966C149.263 99.0966 150.22 99.4923 150.913 100.185C151.604 100.877 152 101.835 152 102.813C152 103.792 151.604 104.749 150.913 105.44C150.22 106.133 149.263 106.529 148.284 106.529Z"
        fill="white" fill-opacity="0.1" />
    <path fill-rule="evenodd" clip-rule="evenodd"
        d="M107.414 106.529H107.395C105.347 106.529 103.688 104.864 103.688 102.813C103.688 100.761 105.347 99.0966 107.395 99.0966H107.414C109.46 99.0966 111.121 100.761 111.121 102.813C111.121 104.864 109.46 106.529 107.414 106.529Z"
        fill="white" fill-opacity="0.1" />
    <path fill-rule="evenodd" clip-rule="evenodd"
        d="M127.234 106.529H127.215C125.169 106.529 123.508 104.864 123.508 102.813C123.508 100.761 125.169 99.0966 127.215 99.0966H127.234C129.28 99.0966 130.941 100.761 130.941 102.813C130.941 104.864 129.28 106.529 127.234 106.529Z"
        fill="white" fill-opacity="0.1" />
    <path fill-rule="evenodd" clip-rule="evenodd"
        d="M86.345 106.529C85.3676 106.529 84.4088 106.133 83.7175 105.44C83.0244 104.749 82.6287 103.792 82.6287 102.813C82.6287 101.835 83.0244 100.877 83.7175 100.185C84.4088 99.4923 85.3676 99.0966 86.345 99.0966C87.3242 99.0966 88.2812 99.4923 88.9743 100.185C89.6655 100.877 90.0613 101.835 90.0613 102.813C90.0613 103.792 89.6655 104.749 88.9743 105.44C88.2812 106.133 87.3242 106.529 86.345 106.529Z"
        fill="white" fill-opacity="0.1" />
    <path fill-rule="evenodd" clip-rule="evenodd"
        d="M65.2861 106.529C64.3069 106.529 63.3499 106.133 62.6568 105.44C61.9656 104.749 61.5698 103.792 61.5698 102.813C61.5698 101.835 61.9656 100.877 62.6568 100.185C63.3499 99.4923 64.3069 99.0966 65.2861 99.0966C66.2635 99.0966 67.2223 99.4923 67.9136 100.185C68.6067 100.877 69.0024 101.835 69.0024 102.813C69.0024 103.792 68.6067 104.749 67.9136 105.44C67.2223 106.133 66.2635 106.529 65.2861 106.529Z"
        fill="white" fill-opacity="0.1" />
    <path fill-rule="evenodd" clip-rule="evenodd"
        d="M24.4158 106.529H24.3972C22.3491 106.529 20.6902 104.864 20.6902 102.813C20.6902 100.761 22.3491 99.0966 24.3972 99.0966H24.4158C26.462 99.0966 28.1228 100.761 28.1228 102.813C28.1228 104.864 26.462 106.529 24.4158 106.529Z"
        fill="white" fill-opacity="0.1" />
    <path fill-rule="evenodd" clip-rule="evenodd"
        d="M45.4748 106.529H45.4563C43.41 106.529 41.7493 104.864 41.7493 102.813C41.7493 100.761 43.41 99.0966 45.4563 99.0966H45.4748C47.5211 99.0966 49.1819 100.761 49.1819 102.813C49.1819 104.864 47.5211 106.529 45.4748 106.529Z"
        fill="white" fill-opacity="0.1" />
    <mask id="mask6_4522_6071" style="mask-type:luminance" maskUnits="userSpaceOnUse" x="-1" y="98"
        width="9" height="9">
        <path fill-rule="evenodd" clip-rule="evenodd"
            d="M7.92749 98.9856H-0.000237942V106.914H7.92749V98.9856Z" fill="white" />
    </mask>
    <g mask="url(#mask6_4522_6071)">
        <path fill-rule="evenodd" clip-rule="evenodd"
            d="M3.96343 106.914C2.92088 106.914 1.89815 106.492 1.16084 105.752C0.421538 105.015 -0.00063467 103.994 -0.00063467 102.95C-0.00063467 101.907 0.421538 100.884 1.16084 100.147C1.89815 99.4078 2.92088 98.9856 3.96343 98.9856C5.00796 98.9856 6.0287 99.4078 6.768 100.147C7.50532 100.884 7.92749 101.907 7.92749 102.95C7.92749 103.994 7.50532 105.015 6.768 105.752C6.0287 106.492 5.00796 106.914 3.96343 106.914Z"
            fill="white" fill-opacity="0.1" />
    </g>
    <path fill-rule="evenodd" clip-rule="evenodd"
        d="M148.284 122.633C147.306 122.633 146.347 122.238 145.656 121.546C144.963 120.853 144.567 119.896 144.567 118.917C144.567 117.94 144.963 116.981 145.656 116.29C146.347 115.596 147.306 115.201 148.284 115.201C149.263 115.201 150.22 115.596 150.913 116.29C151.604 116.981 152 117.94 152 118.917C152 119.896 151.604 120.853 150.913 121.546C150.22 122.238 149.263 122.633 148.284 122.633Z"
        fill="white" fill-opacity="0.1" />
    <path fill-rule="evenodd" clip-rule="evenodd"
        d="M107.414 122.633H107.395C105.347 122.633 103.688 120.97 103.688 118.917C103.688 116.866 105.347 115.201 107.395 115.201H107.414C109.46 115.201 111.121 116.866 111.121 118.917C111.121 120.97 109.46 122.633 107.414 122.633Z"
        fill="white" fill-opacity="0.1" />
    <path fill-rule="evenodd" clip-rule="evenodd"
        d="M127.234 122.633H127.215C125.169 122.633 123.508 120.97 123.508 118.917C123.508 116.866 125.169 115.201 127.215 115.201H127.234C129.28 115.201 130.941 116.866 130.941 118.917C130.941 120.97 129.28 122.633 127.234 122.633Z"
        fill="white" fill-opacity="0.1" />
    <path fill-rule="evenodd" clip-rule="evenodd"
        d="M86.345 122.633C85.3676 122.633 84.4088 122.238 83.7175 121.546C83.0244 120.853 82.6287 119.896 82.6287 118.917C82.6287 117.94 83.0244 116.981 83.7175 116.29C84.4088 115.596 85.3676 115.201 86.345 115.201C87.3242 115.201 88.2812 115.596 88.9743 116.29C89.6655 116.981 90.0613 117.94 90.0613 118.917C90.0613 119.896 89.6655 120.853 88.9743 121.546C88.2812 122.238 87.3242 122.633 86.345 122.633Z"
        fill="white" fill-opacity="0.1" />
    <path fill-rule="evenodd" clip-rule="evenodd"
        d="M65.2861 122.633C64.3069 122.633 63.3499 122.238 62.6568 121.546C61.9656 120.853 61.5698 119.896 61.5698 118.917C61.5698 117.94 61.9656 116.981 62.6568 116.29C63.3499 115.596 64.3069 115.201 65.2861 115.201C66.2635 115.201 67.2223 115.596 67.9136 116.29C68.6067 116.981 69.0024 117.94 69.0024 118.917C69.0024 119.896 68.6067 120.853 67.9136 121.546C67.2223 122.238 66.2635 122.633 65.2861 122.633Z"
        fill="white" fill-opacity="0.1" />
    <path fill-rule="evenodd" clip-rule="evenodd"
        d="M24.4158 122.633H24.3972C22.3491 122.633 20.6902 120.97 20.6902 118.917C20.6902 116.866 22.3491 115.201 24.3972 115.201H24.4158C26.462 115.201 28.1228 116.866 28.1228 118.917C28.1228 120.97 26.462 122.633 24.4158 122.633Z"
        fill="white" fill-opacity="0.1" />
    <path fill-rule="evenodd" clip-rule="evenodd"
        d="M45.4748 122.633H45.4563C43.41 122.633 41.7493 120.97 41.7493 118.917C41.7493 116.866 43.41 115.201 45.4563 115.201H45.4748C47.5211 115.201 49.1819 116.866 49.1819 118.917C49.1819 120.97 47.5211 122.633 45.4748 122.633Z"
        fill="white" fill-opacity="0.1" />
    <mask id="mask7_4522_6071" style="mask-type:luminance" maskUnits="userSpaceOnUse" x="-1" y="115"
        width="9" height="9">
        <path fill-rule="evenodd" clip-rule="evenodd"
            d="M7.92749 115.517H-0.000237942V123.445H7.92749V115.517Z" fill="white" />
    </mask>
    <g mask="url(#mask7_4522_6071)">
        <path fill-rule="evenodd" clip-rule="evenodd"
            d="M3.96343 123.445C2.92088 123.445 1.89815 123.023 1.16084 122.285C0.421538 121.546 -0.00063467 120.525 -0.00063467 119.481C-0.00063467 118.438 0.421538 117.415 1.16084 116.678C1.89815 115.939 2.92088 115.517 3.96343 115.517C5.00796 115.517 6.0287 115.939 6.768 116.678C7.50532 117.415 7.92749 118.438 7.92749 119.481C7.92749 120.525 7.50532 121.546 6.768 122.285C6.0287 123.023 5.00796 123.445 3.96343 123.445Z"
            fill="white" fill-opacity="0.1" />
    </g>
    <mask id="mask8_4522_6071" style="mask-type:luminance" maskUnits="userSpaceOnUse" x="144"
        y="131" width="8" height="8">
        <path fill-rule="evenodd" clip-rule="evenodd" d="M152 131.305H144.567V138.737H152V131.305Z"
            fill="white" />
    </mask>
    <g mask="url(#mask8_4522_6071)">
        <path fill-rule="evenodd" clip-rule="evenodd"
            d="M148.283 138.738C147.306 138.738 146.347 138.342 145.656 137.649C144.963 136.958 144.567 135.999 144.567 135.021C144.567 134.042 144.963 133.085 145.656 132.392C146.347 131.701 147.306 131.305 148.283 131.305C149.263 131.305 150.22 131.701 150.913 132.392C151.604 133.085 152 134.042 152 135.021C152 135.999 151.604 136.958 150.913 137.649C150.22 138.342 149.263 138.738 148.283 138.738Z"
            fill="white" fill-opacity="0.1" />
    </g>
    <mask id="mask9_4522_6071" style="mask-type:luminance" maskUnits="userSpaceOnUse" x="103"
        y="131" width="9" height="8">
        <path fill-rule="evenodd" clip-rule="evenodd"
            d="M111.13 131.305H103.182V138.737H111.13V131.305Z" fill="white" />
    </mask>
    <g mask="url(#mask9_4522_6071)">
        <path fill-rule="evenodd" clip-rule="evenodd"
            d="M107.166 138.738H107.146C104.956 138.738 103.182 137.073 103.182 135.021C103.182 132.968 104.956 131.305 107.146 131.305H107.166C109.354 131.305 111.13 132.968 111.13 135.021C111.13 137.073 109.354 138.738 107.166 138.738Z"
            fill="white" fill-opacity="0.1" />
    </g>
    <mask id="mask10_4522_6071" style="mask-type:luminance" maskUnits="userSpaceOnUse" x="123"
        y="131" width="9" height="8">
        <path fill-rule="evenodd" clip-rule="evenodd"
            d="M131.57 131.305H123.622V138.737H131.57V131.305Z" fill="white" />
    </mask>
    <g mask="url(#mask10_4522_6071)">
        <path fill-rule="evenodd" clip-rule="evenodd"
            d="M127.606 138.738H127.586C125.398 138.738 123.622 137.073 123.622 135.021C123.622 132.968 125.398 131.305 127.586 131.305H127.606C129.794 131.305 131.57 132.968 131.57 135.021C131.57 137.073 129.794 138.738 127.606 138.738Z"
            fill="white" fill-opacity="0.1" />
    </g>
    <mask id="mask11_4522_6071" style="mask-type:luminance" maskUnits="userSpaceOnUse" x="82"
        y="131" width="9" height="8">
        <path fill-rule="evenodd" clip-rule="evenodd"
            d="M90.6792 131.305H82.7511V138.737H90.6792V131.305Z" fill="white" />
    </mask>
    <g mask="url(#mask11_4522_6071)">
        <path fill-rule="evenodd" clip-rule="evenodd"
            d="M86.7151 138.738C85.6726 138.738 84.6499 138.342 83.9125 137.649C83.1732 136.958 82.7511 135.999 82.7511 135.021C82.7511 134.042 83.1732 133.085 83.9125 132.392C84.6499 131.701 85.6726 131.305 86.7151 131.305C87.7597 131.305 88.7804 131.701 89.5197 132.392C90.257 133.085 90.6792 134.042 90.6792 135.021C90.6792 135.999 90.257 136.958 89.5197 137.649C88.7804 138.342 87.7597 138.738 86.7151 138.738Z"
            fill="white" fill-opacity="0.1" />
    </g>
    <mask id="mask12_4522_6071" style="mask-type:luminance" maskUnits="userSpaceOnUse" x="61"
        y="131" width="9" height="8">
        <path fill-rule="evenodd" clip-rule="evenodd"
            d="M69.7441 131.305H61.816V138.737H69.7441V131.305Z" fill="white" />
    </mask>
    <g mask="url(#mask12_4522_6071)">
        <path fill-rule="evenodd" clip-rule="evenodd"
            d="M65.7801 138.738C64.7355 138.738 63.7148 138.342 62.9755 137.649C62.2382 136.958 61.816 135.999 61.816 135.021C61.816 134.042 62.2382 133.085 62.9755 132.392C63.7148 131.701 64.7355 131.305 65.7801 131.305C66.8226 131.305 67.8454 131.701 68.5827 132.392C69.322 133.085 69.7441 134.042 69.7441 135.021C69.7441 135.999 69.322 136.958 68.5827 137.649C67.8454 138.342 66.8226 138.738 65.7801 138.738Z"
            fill="white" fill-opacity="0.1" />
    </g>
    <mask id="mask13_4522_6071" style="mask-type:luminance" maskUnits="userSpaceOnUse" x="20"
        y="131" width="9" height="8">
        <path fill-rule="evenodd" clip-rule="evenodd"
            d="M28.8735 131.305H20.9256V138.737H28.8735V131.305Z" fill="white" />
    </mask>
    <g mask="url(#mask13_4522_6071)">
        <path fill-rule="evenodd" clip-rule="evenodd"
            d="M24.9095 138.738H24.8897C22.6995 138.738 20.9256 137.073 20.9256 135.021C20.9256 132.968 22.6995 131.305 24.8897 131.305H24.9095C27.0976 131.305 28.8735 132.968 28.8735 135.021C28.8735 137.073 27.0976 138.738 24.9095 138.738Z"
            fill="white" fill-opacity="0.1" />
    </g>
    <mask id="mask14_4522_6071" style="mask-type:luminance" maskUnits="userSpaceOnUse" x="41"
        y="131" width="9" height="8">
        <path fill-rule="evenodd" clip-rule="evenodd"
            d="M49.3132 131.305H41.3653V138.737H49.3132V131.305Z" fill="white" />
    </mask>
    <g mask="url(#mask14_4522_6071)">
        <path fill-rule="evenodd" clip-rule="evenodd"
            d="M45.3492 138.738H45.3293C43.1412 138.738 41.3653 137.073 41.3653 135.021C41.3653 132.968 43.1412 131.305 45.3293 131.305H45.3492C47.5373 131.305 49.3132 132.968 49.3132 135.021C49.3132 137.073 47.5373 138.738 45.3492 138.738Z"
            fill="white" fill-opacity="0.1" />
    </g>
    <mask id="mask15_4522_6071" style="mask-type:luminance" maskUnits="userSpaceOnUse" x="-1"
        y="131" width="9" height="8">
        <path fill-rule="evenodd" clip-rule="evenodd"
            d="M7.92749 131.305H-0.000237942V138.737H7.92749V131.305Z" fill="white" />
    </mask>
    <g mask="url(#mask15_4522_6071)">
        <path fill-rule="evenodd" clip-rule="evenodd"
            d="M3.96343 138.738C2.92088 138.738 1.89815 138.342 1.16084 137.649C0.421538 136.958 -0.00063467 135.999 -0.00063467 135.021C-0.00063467 134.042 0.421538 133.085 1.16084 132.392C1.89815 131.701 2.92088 131.305 3.96343 131.305C5.00796 131.305 6.0287 131.701 6.768 132.392C7.50532 133.085 7.92749 134.042 7.92749 135.021C7.92749 135.999 7.50532 136.958 6.768 137.649C6.0287 138.342 5.00796 138.738 3.96343 138.738Z"
            fill="white" fill-opacity="0.1" />
    </g>
</svg>
    