<svg width="209" height="56" viewBox="0 0 209 56" fill="none" xmlns="http://www.w3.org/2000/svg">
<path d="M16.8248 1.74256L1.13931 25.496C0.412055 26.5974 0.301865 27.9946 0.847306 29.2001L12.4448 54.7672L17.5135 47.0905C19.8936 43.4905 20.3124 38.948 18.632 34.9754L10.6542 16.7289C10.3787 16.0987 10.4448 15.3809 10.8195 14.8056C11.1996 14.2302 11.8498 13.885 12.544 13.8905L32.9897 14.1097C37.3257 14.0713 41.3586 11.8795 43.7442 8.27406L48.8295 0.575434L20.1471 9.13906e-05C18.8138 -0.0273059 17.5576 0.630228 16.8248 1.73708V1.74256Z" fill="white"/>
<path d="M53.0331 42.3728L45.1821 54.2578C44.4549 55.3646 43.2042 56.0221 41.8764 55.9947L13.6843 55.5728L18.7586 47.8906C21.1332 44.2961 25.1551 42.0989 29.4856 42.0495L49.4905 42.0824H49.5126C50.4272 42.0824 50.7798 40.8934 50.0139 40.3947L31.1109 28.0495L38.6148 23.8139C41.8764 21.9728 45.9039 22.1043 49.0388 24.1536L57.9641 29.9838C59.2148 30.8002 59.5674 32.4769 58.741 33.7208L53.0276 42.3673L53.0331 42.3728Z" fill="white"/>
<path d="M157.939 24.8165C157.939 25.3754 157.747 25.8576 157.372 26.2302C156.997 26.6028 156.496 26.8056 155.912 26.8056C155.355 26.8056 154.876 26.6138 154.49 26.2302C154.105 25.8467 153.906 25.3754 153.906 24.8165C153.906 24.2576 154.099 23.7645 154.49 23.3864C154.882 23.0083 155.361 22.811 155.912 22.811C156.496 22.811 156.992 23.0028 157.372 23.3864C157.747 23.759 157.939 24.2412 157.939 24.8165Z" fill="white"/>
<path d="M147.46 23.1945C147.08 23.6493 146.893 24.1425 146.893 24.6904C146.893 25.1836 147.053 25.6164 147.367 26.011C147.686 26.411 148.155 26.7178 148.783 26.9479C149.725 27.2931 150.942 27.3863 152.342 27.189C152.805 27.1233 153.234 27.0301 153.648 26.9151L153.818 26.8712L154.937 30.0603L154.777 30.126C154.193 30.3945 153.565 30.6027 152.915 30.7452C152.276 30.8767 151.626 30.9534 150.975 30.9534C150.072 30.9534 149.163 30.8219 148.27 30.5589C147.394 30.2904 146.601 29.8904 145.901 29.3753C145.19 28.8383 144.634 28.1808 144.237 27.4247C143.824 26.663 143.626 25.7699 143.626 24.7726C143.626 23.9233 143.797 23.0904 144.144 22.2794C144.48 21.474 145.003 20.7288 145.686 20.0822C146.375 19.4356 147.234 18.9151 148.248 18.5425C149.251 18.1644 150.452 17.9671 151.807 17.9671H155.625V14.8438C155.625 14.126 155.444 13.5342 155.085 13.0247C154.716 12.5205 154.182 12.1096 153.499 11.8027C152.794 11.5123 151.94 11.3644 150.975 11.3644C150.232 11.3644 149.477 11.4466 148.722 11.6164C148 11.7863 147.35 11.9945 146.788 12.2411L146.617 12.3233L145.29 9.37533L145.433 9.28766C146.265 8.76712 147.163 8.36164 148.116 8.09314C149.047 7.83013 150.028 7.7041 151.03 7.7041C152.138 7.7041 153.179 7.86849 154.121 8.20273C155.063 8.52054 155.906 9.01369 156.623 9.65479C157.328 10.2904 157.879 11.0466 158.287 11.9178C158.683 12.811 158.876 13.7644 158.876 14.8383V17.9616H159.967L159.377 21.6219H151.807C150.783 21.6219 149.896 21.7644 149.163 22.0603C148.43 22.3452 147.857 22.7288 147.471 23.1945H147.46Z" fill="white"/>
<path d="M165.857 0.378174H162.606V21.6165H165.857V0.378174Z" fill="white"/>
<path d="M202.065 26.4932C202.065 27.0576 201.872 27.5343 201.498 27.9178C201.117 28.2959 200.627 28.4932 200.038 28.4932C199.481 28.4932 199.013 28.3014 198.622 27.9178C198.23 27.5507 198.038 27.0685 198.038 26.4932C198.038 25.9178 198.23 25.4357 198.627 25.0631C199.007 24.6905 199.481 24.5042 200.038 24.5042C200.622 24.5042 201.117 24.6905 201.498 25.0685C201.872 25.4466 202.065 25.9233 202.065 26.4932Z" fill="white"/>
<path d="M208.5 17.9562L207.889 21.6165H173.449V22.4384C173.449 23.6548 173.206 24.7124 172.738 25.5836C172.259 26.4603 171.575 27.1562 170.721 27.6274C169.862 28.1041 168.81 28.3562 167.598 28.3945H167.432L166.832 24.8877H167.058C167.884 24.8877 168.501 24.8055 168.958 24.6356C169.41 24.4713 169.713 24.2192 169.901 23.863C170.104 23.4904 170.198 23.0192 170.198 22.4493V8.9644H173.443V17.9726H204.137V14.8493C204.137 14.1315 203.966 13.5452 203.597 13.0302C203.239 12.5096 202.721 12.1151 202.021 11.8082C201.327 11.5178 200.478 11.3699 199.503 11.3699C198.737 11.3699 197.977 11.4521 197.239 11.6219C196.511 11.7918 195.867 12 195.316 12.2466L195.145 12.3233L193.79 9.38084L193.933 9.29317C194.77 8.77262 195.68 8.36714 196.638 8.10961C197.575 7.84112 198.55 7.71509 199.531 7.71509C200.66 7.71509 201.712 7.87947 202.655 8.21372C203.597 8.53153 204.44 9.02468 205.156 9.66577C205.861 10.3014 206.423 11.0685 206.809 11.9288C207.211 12.8219 207.409 13.7699 207.409 14.8493V17.9726H208.495L208.5 17.9562Z" fill="white"/>
<path d="M137.494 26.444C137.494 27.0029 137.301 27.4851 136.926 27.8577C136.552 28.2303 136.05 28.433 135.466 28.433C134.882 28.433 134.441 28.2412 134.05 27.8577C133.659 27.4906 133.466 27.0084 133.466 26.444C133.466 25.8796 133.659 25.3864 134.056 25.0084C134.436 24.6358 134.91 24.4495 135.466 24.4495C136.05 24.4495 136.546 24.6358 136.926 25.0138C137.306 25.3919 137.494 25.8686 137.494 26.444Z" fill="white"/>
<path d="M138.172 8.8988V21.5618H120.673C119.423 21.5618 118.381 21.3481 117.566 20.9372C117.274 20.7783 116.999 20.592 116.767 20.3837C116.514 20.5974 116.233 20.7837 115.935 20.9372C115.125 21.3481 114.079 21.5618 112.828 21.5618H100.382C99.1258 21.5618 98.0845 21.3481 97.2636 20.9372C97.0156 20.8111 96.7787 20.6632 96.5418 20.4769C96.3159 20.6632 96.079 20.8331 95.8201 20.97C94.5033 21.6878 93.0323 21.7426 91.688 21.1837C91.0819 20.9207 90.5365 20.5207 90.0682 19.9892C90.0627 19.9837 90.0516 19.9728 90.0516 19.9673C89.699 20.3783 89.2968 20.7125 88.8285 20.9646C87.5173 21.6824 86.0738 21.7372 84.6964 21.1783C84.4264 21.0577 84.173 20.9262 83.9471 20.7618C83.881 21.0139 83.8149 21.2659 83.7323 21.507C83.3521 22.6413 82.7901 23.655 82.0519 24.5098C81.2971 25.3865 80.41 26.0495 79.3357 26.5262C78.2778 27.0029 77.0382 27.2495 75.6333 27.2495C74.2284 27.2495 72.9942 27.0029 71.9474 26.5262C70.8786 26.0495 69.9695 25.3646 69.2588 24.4988C68.5316 23.644 67.9861 22.6358 67.617 21.518C67.2478 20.4002 67.0715 19.1728 67.0715 17.8522C67.0715 17.1289 67.1266 16.4002 67.2368 15.6769C67.3415 14.9591 67.4903 14.2522 67.6886 13.5618L67.7327 13.3974L70.84 13.9728L70.7959 14.1591C70.6637 14.7399 70.5425 15.3591 70.4433 16.0604C70.3607 16.6467 70.3221 17.2385 70.3221 17.8577C70.3221 19.0961 70.526 20.1207 70.9337 20.9865C71.3579 21.8413 71.9474 22.4769 72.7408 22.9207C73.5342 23.3591 74.5093 23.5837 75.6333 23.5837C76.7572 23.5837 77.7765 23.3591 78.5754 22.9207C79.3687 22.4714 79.9858 21.8248 80.41 20.9755C80.8232 20.1262 81.0381 19.0687 81.0381 17.8522V11.37H84.2887V16.8878C84.4154 17.2166 84.6358 17.4851 84.9388 17.6824C85.7653 18.2139 86.7074 18.1372 87.4346 17.5235C87.8313 17.1892 88.0241 16.6906 88.0241 15.9892V10.1043H91.2747V16.17C91.2747 16.4221 91.2692 16.6413 91.2472 16.8385C91.3739 17.1892 91.5943 17.4632 91.9194 17.6714C92.2995 17.918 92.6907 18.0385 93.1039 18.0385C93.5887 18.0385 94.024 17.8687 94.4372 17.5235C94.8174 17.1947 95.0047 16.6906 95.0047 15.9892V8.88236H98.2828V16.17C98.2828 16.5262 98.2608 16.8714 98.2167 17.1837C98.2222 17.2002 98.2222 17.2057 98.2222 17.2111C98.3269 17.4741 98.5197 17.6331 98.8283 17.7317C99.1809 17.8303 99.6988 17.8906 100.365 17.8906H112.811C113.484 17.8906 114.023 17.8303 114.36 17.7317C114.652 17.6331 114.844 17.4632 114.949 17.2166C115.059 16.9317 115.12 16.5098 115.12 15.9892V0.3125H118.37V16.0057C118.37 16.5591 118.42 16.9755 118.53 17.2331C118.629 17.4851 118.822 17.6495 119.131 17.7481C119.489 17.8467 120.001 17.907 120.657 17.907H134.904V8.8988H138.155H138.172Z" fill="white"/>
<path d="M84.6356 41.3482C84.586 46.4167 81.0819 50.203 76.0132 50.203C70.9445 50.203 67.0327 46.4715 67.0327 40.9975C67.0327 35.5236 70.9665 31.7646 76.0848 31.7646C79.1536 31.7646 81.5888 32.9263 83.159 34.7674L80.6246 36.7619C79.6109 35.6496 78.0131 34.8222 76.1619 34.8222C72.9664 34.8222 70.4817 36.992 70.4817 40.9537C70.4817 44.9153 73.0656 47.2331 76.0628 47.2331C78.7239 47.2331 80.7789 45.666 81.2362 42.7455H76.3658V39.8688H84.6356C84.6356 40.2194 84.6631 41.0304 84.6356 41.3537V41.3482Z" fill="white"/>
<path d="M97.8527 36.5317H101.076V49.8742H97.8527V47.4523C96.7343 49.1947 95.1641 50.1755 93.0595 50.1755C89.583 50.1755 86.4646 47.781 86.4646 43.2112C86.4646 38.6413 89.4838 36.1755 93.0595 36.1755C95.1145 36.1755 96.7123 37.0084 97.8527 38.5975V36.5317ZM97.8527 43.1892V43.0632C97.1971 40.4879 95.5222 38.8988 93.5443 38.8988C91.4617 38.8988 89.8695 40.3344 89.8695 43.1618C89.8695 45.9892 91.4672 47.4468 93.5443 47.4468C95.6214 47.4468 97.2467 45.6824 97.8527 43.1838V43.1892Z" fill="white"/>
<path d="M111.935 36.455L111.478 39.2057C111.125 39.0797 110.64 39.0304 110.288 39.0304C108.64 39.0304 107.142 40.4441 106.255 42.7399V49.8797H103.01V36.5372H106.255V39.0084C107.296 37.4194 108.74 36.2852 110.618 36.2852C111.103 36.2852 111.555 36.3345 111.935 36.4605V36.455Z" fill="white"/>
<path d="M125.411 36.5317H128.634V49.8742H125.411V47.4523C124.293 49.1947 122.723 50.1755 120.618 50.1755C117.147 50.1755 114.023 47.781 114.023 43.2112C114.023 38.6413 117.042 36.1755 120.618 36.1755C122.673 36.1755 124.271 37.0084 125.411 38.5975V36.5317ZM125.411 43.1892V43.0632C124.756 40.4879 123.081 38.8988 121.103 38.8988C119.02 38.8988 117.428 40.3344 117.428 43.1618C117.428 45.9892 119.026 47.4468 121.103 47.4468C123.18 47.4468 124.805 45.6824 125.411 43.1838V43.1892Z" fill="white"/>
<path d="M141.956 36.5318H145.179V49.8469C145.179 53.151 142.111 55.4962 137.824 55.4962C135.439 55.4962 132.954 54.8387 131.455 53.8579L131.912 51.0085C133.56 52.0442 135.995 52.625 137.797 52.625C140.055 52.625 141.956 51.6168 141.956 49.3483V47.151C140.838 48.8387 139.246 49.6496 137.135 49.6496C133.686 49.6496 130.568 47.5291 130.568 42.9921C130.568 38.4551 133.587 36.1812 137.135 36.1812C139.213 36.1812 140.81 37.0359 141.956 38.625V36.5318ZM141.956 43.0633V42.9592C141.301 40.4387 139.626 38.899 137.62 38.899C135.615 38.899 133.94 40.1866 133.94 42.9318C133.94 45.5291 135.565 46.9154 137.642 46.9154C139.719 46.9154 141.317 45.5291 141.951 43.0579L141.956 43.0633Z" fill="white"/>
<path d="M150.612 44.2249C150.942 46.4933 152.386 47.6276 154.975 47.6276C156.623 47.6276 157.994 47.3481 159.565 46.5153L160.121 48.8385C158.65 49.6933 156.771 50.2249 154.463 50.2249C149.796 50.2249 147.234 47.6002 147.234 43.2879C147.234 38.9755 150.149 36.1755 154.132 36.1755C157.835 36.1755 160.749 38.3947 160.749 43.1892C160.749 43.5947 160.722 43.9454 160.672 44.2249H150.601H150.612ZM157.41 42.2084C157.179 39.8906 156.066 38.729 154.088 38.729C152.11 38.729 150.893 39.9125 150.612 42.2084H157.41Z" fill="white"/>
<path d="M175.228 40.5537C175.228 44.488 171.983 46.5318 168.556 46.5318H166.198V52.3345H162.848V34.603H168.556C172.132 34.603 175.228 36.5208 175.228 40.5537ZM167.901 43.7811C170.49 43.7811 171.834 42.5208 171.834 40.6523C171.834 38.4551 170.518 37.3482 167.879 37.3482H166.204V43.7811H167.901Z" fill="white"/>
<path d="M177.36 52.3345V34.603H180.605V52.3345H177.36Z" fill="white"/>
<path d="M192.418 38.9921H195.641V52.3345H192.418V49.8359C191.2 51.6551 189.575 52.5866 187.498 52.5866C184.732 52.5866 182.677 51.1729 182.677 46.8331V38.9866H185.9V46.6304C185.9 48.877 186.76 49.8578 188.335 49.8578C190.109 49.8578 191.432 48.6468 192.418 46.0989V38.9866V38.9921Z" fill="white"/>
<path d="M197.525 51.4798L198.081 48.8551C199.222 49.5839 200.996 50.1921 202.594 50.1921C204.192 50.1921 205.233 49.7099 205.233 48.625C205.233 45.9784 197.701 48.2962 197.701 42.9263C197.701 40.3291 199.784 38.614 203.282 38.614C205.029 38.614 206.781 39.0962 208.026 39.7483L207.442 42.3455C206.252 41.6661 204.831 41.162 203.437 41.162C201.966 41.162 200.924 41.7428 200.924 42.7291C200.924 45.5784 208.456 43.2825 208.456 48.3017C208.456 50.9263 205.944 52.6688 202.495 52.6688C200.467 52.6688 198.61 52.0606 197.52 51.4852L197.525 51.4798Z" fill="white"/>
</svg>
