<svg width="192" height="52" viewBox="0 0 192 52" fill="none" xmlns="http://www.w3.org/2000/svg">
    <path d="M15.0689 1.61804L0.589962 23.6748C-0.0813488 24.6975 -0.183062 25.9949 0.320421 27.1143L11.0258 50.8552L15.7046 43.7268C17.9016 40.384 18.2882 36.166 16.737 32.4771L9.37295 15.5339C9.11866 14.9488 9.17969 14.2822 9.52552 13.748C9.87643 13.2137 10.4765 12.8932 11.1173 12.8983L29.9903 13.1018C33.9928 13.0662 37.7155 11.031 39.9176 7.68301L44.6117 0.534279L18.1356 3.25469e-05C16.9049 -0.0254078 15.7453 0.58516 15.0689 1.61295V1.61804Z" fill="url(#paint0_linear_4615_40)"/>
    <path d="M48.4919 39.3461L41.2448 50.3821C40.5735 51.4099 39.419 52.0205 38.1934 51.995L12.1699 51.6032L16.8538 44.4698C19.0458 41.132 22.7583 39.0917 26.7557 39.0459L45.2218 39.0764H45.2422C46.0864 39.0764 46.4119 37.9723 45.705 37.5093L28.256 26.0459L35.1827 22.1128C38.1934 20.4032 41.911 20.5253 44.8048 22.4283L53.0436 27.842C54.1981 28.6001 54.5235 30.1571 53.7607 31.312L48.4868 39.341L48.4919 39.3461Z" fill="url(#paint1_linear_4615_40)"/>
    <path d="M145.329 23.0439C145.329 23.5629 145.151 24.0106 144.805 24.3566C144.459 24.7026 143.996 24.8908 143.457 24.8908C142.943 24.8908 142.501 24.7128 142.145 24.3566C141.789 24.0004 141.606 23.5629 141.606 23.0439C141.606 22.5249 141.784 22.067 142.145 21.7159C142.506 21.3648 142.949 21.1816 143.457 21.1816C143.996 21.1816 144.454 21.3597 144.805 21.7159C145.151 22.0619 145.329 22.5096 145.329 23.0439Z" fill="#290671"/>
    <path d="M135.656 21.5378C135.305 21.9601 135.132 22.418 135.132 22.9268C135.132 23.3847 135.279 23.7867 135.569 24.153C135.864 24.5245 136.296 24.8094 136.876 25.0231C137.746 25.3436 138.87 25.4301 140.162 25.247C140.589 25.1859 140.985 25.0994 141.367 24.9926L141.524 24.9519L142.557 27.9131L142.409 27.9742C141.87 28.2235 141.291 28.4168 140.69 28.5491C140.101 28.6712 139.5 28.7425 138.9 28.7425C138.066 28.7425 137.227 28.6203 136.403 28.3761C135.595 28.1268 134.862 27.7554 134.216 27.2771C133.56 26.7785 133.047 26.1679 132.68 25.4657C132.299 24.7585 132.116 23.9292 132.116 23.0031C132.116 22.2145 132.274 21.4411 132.594 20.6881C132.904 19.9401 133.387 19.2481 134.018 18.6477C134.654 18.0474 135.447 17.564 136.383 17.218C137.308 16.8669 138.417 16.6838 139.668 16.6838H143.193V13.7836C143.193 13.117 143.025 12.5675 142.694 12.0943C142.353 11.6262 141.86 11.2446 141.23 10.9597C140.579 10.69 139.79 10.5526 138.9 10.5526C138.214 10.5526 137.517 10.629 136.82 10.7867C136.154 10.9444 135.554 11.1378 135.035 11.3667L134.877 11.443L133.652 8.70567L133.784 8.62426C134.552 8.14089 135.381 7.76438 136.261 7.51506C137.12 7.27083 138.026 7.15381 138.951 7.15381C139.973 7.15381 140.935 7.30645 141.804 7.61682C142.674 7.91193 143.452 8.36986 144.113 8.96516C144.764 9.55537 145.273 10.2575 145.649 11.0665C146.015 11.8959 146.193 12.7812 146.193 13.7785V16.6787H147.2L146.656 20.0775H139.668C138.722 20.0775 137.903 20.2098 137.227 20.4845C136.551 20.7491 136.022 21.1053 135.666 21.5378H135.656Z" fill="#290671"/>
    <path d="M152.637 0.351074H149.636V20.0724H152.637V0.351074Z" fill="#290671"/>
    <path d="M186.06 24.6009C186.06 25.1249 185.882 25.5676 185.536 25.9238C185.185 26.2748 184.733 26.458 184.188 26.458C183.675 26.458 183.242 26.2799 182.881 25.9238C182.52 25.5829 182.342 25.1351 182.342 24.6009C182.342 24.0666 182.52 23.6189 182.886 23.2729C183.237 22.9269 183.675 22.7539 184.188 22.7539C184.727 22.7539 185.185 22.9269 185.536 23.278C185.882 23.6291 186.06 24.0717 186.06 24.6009Z" fill="#290671"/>
    <path d="M192 16.6737L191.435 20.0725H159.645V20.8357C159.645 21.9652 159.421 22.9472 158.989 23.7562C158.546 24.5703 157.916 25.2165 157.127 25.6541C156.334 26.0967 155.363 26.3308 154.244 26.3664H154.091L153.537 23.11H153.745C154.508 23.11 155.078 23.0337 155.5 22.876C155.917 22.7234 156.197 22.4893 156.37 22.1586C156.558 21.8126 156.644 21.375 156.644 20.8459V8.32414H159.64V16.6889H187.972V13.7887C187.972 13.1222 187.814 12.5778 187.474 12.0995C187.143 11.6161 186.665 11.2498 186.019 10.9648C185.378 10.6952 184.595 10.5578 183.695 10.5578C182.988 10.5578 182.286 10.6341 181.605 10.7919C180.933 10.9496 180.338 11.1429 179.83 11.3719L179.672 11.4431L178.421 8.71083L178.553 8.62942C179.326 8.14606 180.166 7.76954 181.05 7.5304C181.915 7.28109 182.815 7.16406 183.72 7.16406C184.763 7.16406 185.734 7.3167 186.604 7.62708C187.474 7.92218 188.252 8.38011 188.913 8.97541C189.564 9.56563 190.083 10.278 190.439 11.0768C190.81 11.9061 190.993 12.7864 190.993 13.7887V16.6889H191.995L192 16.6737Z" fill="#290671"/>
    <path d="M126.456 24.5549C126.456 25.0739 126.278 25.5217 125.932 25.8677C125.586 26.2136 125.123 26.4019 124.584 26.4019C124.045 26.4019 123.638 26.2238 123.277 25.8677C122.916 25.5268 122.738 25.079 122.738 24.5549C122.738 24.0309 122.916 23.5729 123.282 23.2219C123.633 22.8759 124.07 22.7029 124.584 22.7029C125.123 22.7029 125.581 22.8759 125.932 23.227C126.283 23.578 126.456 24.0207 126.456 24.5549Z" fill="#290671"/>
    <path d="M127.081 8.26303V20.0215H110.929C109.775 20.0215 108.814 19.8231 108.061 19.4415C107.791 19.294 107.537 19.121 107.324 18.9276C107.09 19.126 106.83 19.299 106.556 19.4415C105.808 19.8231 104.842 20.0215 103.687 20.0215H92.1988C91.0392 20.0215 90.078 19.8231 89.3203 19.4415C89.0914 19.3245 88.8727 19.1871 88.654 19.0141C88.4455 19.1871 88.2268 19.3448 87.9878 19.472C86.7723 20.1386 85.4144 20.1895 84.1735 19.6705C83.6141 19.4262 83.1106 19.0548 82.6784 18.5613C82.6733 18.5562 82.6631 18.546 82.6631 18.5409C82.3376 18.9225 81.9664 19.2329 81.5341 19.4669C80.3237 20.1335 78.9912 20.1844 77.7198 19.6654C77.4706 19.5534 77.2367 19.4313 77.0282 19.2787C76.9671 19.5127 76.9061 19.7468 76.8298 19.9707C76.4789 21.0239 75.9602 21.9652 75.2787 22.7589C74.5819 23.573 73.7631 24.1887 72.7714 24.6313C71.795 25.074 70.6507 25.303 69.3538 25.303C68.057 25.303 66.9178 25.074 65.9515 24.6313C64.9649 24.1887 64.1258 23.5527 63.4697 22.7487C62.7984 21.955 62.2949 21.0188 61.9542 19.9808C61.6134 18.9429 61.4507 17.8032 61.4507 16.5769C61.4507 15.9053 61.5015 15.2286 61.6033 14.557C61.6999 13.8904 61.8372 13.2341 62.0203 12.593L62.061 12.4403L64.9293 12.9746L64.8886 13.1476C64.7665 13.6869 64.6547 14.2619 64.5631 14.9131C64.4868 15.4576 64.4512 16.0071 64.4512 16.582C64.4512 17.7319 64.6394 18.6834 65.0157 19.4873C65.4073 20.281 65.9515 20.8713 66.6839 21.2834C67.4162 21.6904 68.3164 21.899 69.3538 21.899C70.3913 21.899 71.3322 21.6904 72.0696 21.2834C72.8019 20.8662 73.3715 20.2658 73.7631 19.4771C74.1446 18.6885 74.3429 17.7065 74.3429 16.5769V10.5577H77.3435V15.6814C77.4604 15.9867 77.6639 16.236 77.9436 16.4192C78.7064 16.9127 79.5761 16.8415 80.2474 16.2716C80.6136 15.9613 80.7916 15.4983 80.7916 14.847V9.38241H83.7921V15.0149C83.7921 15.2489 83.787 15.4525 83.7667 15.6356C83.8837 15.9613 84.0871 16.2157 84.3871 16.409C84.738 16.638 85.0991 16.7499 85.4806 16.7499C85.9281 16.7499 86.3299 16.5922 86.7113 16.2716C87.0622 15.9664 87.2351 15.4983 87.2351 14.847V8.24777H90.2611V15.0149C90.2611 15.3456 90.2408 15.6662 90.2001 15.9562C90.2052 15.9714 90.2052 15.9765 90.2052 15.9816C90.3018 16.2259 90.4798 16.3734 90.7646 16.465C91.0901 16.5566 91.5681 16.6125 92.1835 16.6125H103.672C104.293 16.6125 104.791 16.5566 105.101 16.465C105.371 16.3734 105.549 16.2157 105.645 15.9867C105.747 15.7221 105.803 15.3304 105.803 14.847V0.290039H108.804V14.8623C108.804 15.3761 108.849 15.7628 108.951 16.002C109.043 16.236 109.221 16.3887 109.505 16.4803C109.836 16.5718 110.309 16.6278 110.914 16.6278H124.066V8.26303H127.066H127.081Z" fill="#290671"/>
    <path d="M77.6636 38.3946C77.6178 43.1011 74.3833 46.6169 69.7045 46.6169C65.0256 46.6169 61.4148 43.152 61.4148 38.069C61.4148 32.986 65.046 29.4956 69.7706 29.4956C72.6033 29.4956 74.8512 30.5743 76.3006 32.2839L73.9612 34.1359C73.0254 33.103 71.5506 32.3347 69.8418 32.3347C66.8921 32.3347 64.5984 34.3496 64.5984 38.0283C64.5984 41.707 66.9836 43.8592 69.7502 43.8592C72.2066 43.8592 74.1036 42.404 74.5257 39.6921H70.0299V37.0209H77.6636C77.6636 37.3465 77.689 38.0995 77.6636 38.3997V38.3946Z" fill="#290671"/>
    <path d="M89.8642 33.9223H92.8393V46.3117H89.8642V44.0628C88.8318 45.6808 87.3824 46.5916 85.4396 46.5916C82.2306 46.5916 79.3521 44.3681 79.3521 40.1246C79.3521 35.8812 82.139 33.5916 85.4396 33.5916C87.3366 33.5916 88.8114 34.3649 89.8642 35.8405V33.9223ZM89.8642 40.1043V39.9872C89.259 37.5959 87.7129 36.1203 85.8872 36.1203C83.9648 36.1203 82.495 37.4534 82.495 40.0788C82.495 42.7043 83.9699 44.0577 85.8872 44.0577C87.8045 44.0577 89.3047 42.4193 89.8642 40.0992V40.1043Z" fill="#290671"/>
    <path d="M102.863 33.8511L102.441 36.4053C102.115 36.2883 101.668 36.2425 101.342 36.2425C99.8218 36.2425 98.4385 37.5552 97.6197 39.6871V46.3168H94.6243V33.9274H97.6197V36.2221C98.5809 34.7466 99.9134 33.6934 101.648 33.6934C102.095 33.6934 102.512 33.7392 102.863 33.8562V33.8511Z" fill="#290671"/>
    <path d="M115.303 33.9223H118.278V46.3117H115.303V44.0628C114.27 45.6808 112.821 46.5916 110.878 46.5916C107.674 46.5916 104.791 44.3681 104.791 40.1246C104.791 35.8812 107.577 33.5916 110.878 33.5916C112.775 33.5916 114.25 34.3649 115.303 35.8405V33.9223ZM115.303 40.1043V39.9872C114.697 37.5959 113.151 36.1203 111.326 36.1203C109.403 36.1203 107.933 37.4534 107.933 40.0788C107.933 42.7043 109.408 44.0577 111.326 44.0577C113.243 44.0577 114.743 42.4193 115.303 40.0992V40.1043Z" fill="#290671"/>
    <path d="M130.575 33.9223H133.55V46.2863C133.55 49.3544 130.718 51.5321 126.761 51.5321C124.559 51.5321 122.265 50.9215 120.882 50.0108L121.304 47.365C122.825 48.3266 125.072 48.866 126.735 48.866C128.821 48.866 130.575 47.9298 130.575 45.8233V43.783C129.543 45.3501 128.073 46.1031 126.125 46.1031C122.941 46.1031 120.063 44.1341 120.063 39.9211C120.063 35.7082 122.85 33.5967 126.125 33.5967C128.042 33.5967 129.517 34.3904 130.575 35.866V33.9223ZM130.575 39.9873V39.8906C129.97 37.5501 128.424 36.1204 126.573 36.1204C124.721 36.1204 123.175 37.3161 123.175 39.8652C123.175 42.2769 124.676 43.5642 126.593 43.5642C128.51 43.5642 129.985 42.2769 130.57 39.9822L130.575 39.9873Z" fill="#290671"/>
    <path d="M138.565 41.0659C138.87 43.1724 140.202 44.2256 142.593 44.2256C144.113 44.2256 145.38 43.9661 146.829 43.1927L147.343 45.3501C145.985 46.1438 144.251 46.6373 142.12 46.6373C137.812 46.6373 135.447 44.2002 135.447 40.1959C135.447 36.1916 138.138 33.5916 141.815 33.5916C145.232 33.5916 147.922 35.6522 147.922 40.1043C147.922 40.4808 147.897 40.8064 147.851 41.0659H138.555H138.565ZM144.841 39.1935C144.627 37.0413 143.6 35.9626 141.774 35.9626C139.948 35.9626 138.824 37.0616 138.565 39.1935H144.841Z" fill="#290671"/>
    <path d="M161.288 37.6567C161.288 41.31 158.292 43.2078 155.129 43.2078H152.952V48.5961H149.86V32.1311H155.129C158.429 32.1311 161.288 33.9119 161.288 37.6567ZM154.524 40.6536C156.914 40.6536 158.155 39.4834 158.155 37.7483C158.155 35.708 156.939 34.6802 154.503 34.6802H152.957V40.6536H154.524Z" fill="#290671"/>
    <path d="M163.256 48.5961V32.1311H166.251V48.5961H163.256Z" fill="#290671"/>
    <path d="M177.155 36.2067H180.13V48.5962H177.155V46.276C176.031 47.9653 174.531 48.8302 172.614 48.8302C170.061 48.8302 168.164 47.5175 168.164 43.4878V36.2017H171.139V43.2995C171.139 45.3856 171.932 46.2964 173.387 46.2964C175.024 46.2964 176.245 45.1719 177.155 42.806V36.2017V36.2067Z" fill="#290671"/>
    <path d="M181.869 47.8022L182.383 45.3651C183.436 46.0418 185.073 46.6065 186.548 46.6065C188.023 46.6065 188.984 46.1588 188.984 45.1514C188.984 42.6938 182.032 44.8461 182.032 39.8598C182.032 37.448 183.954 35.8555 187.184 35.8555C188.796 35.8555 190.413 36.3032 191.563 36.9087L191.024 39.3204C189.925 38.6895 188.613 38.2214 187.326 38.2214C185.968 38.2214 185.007 38.7608 185.007 39.6766C185.007 42.3224 191.959 40.1905 191.959 44.8512C191.959 47.2883 189.64 48.9063 186.457 48.9063C184.585 48.9063 182.871 48.3416 181.864 47.8073L181.869 47.8022Z" fill="#290671"/>
    <defs>
    <linearGradient id="paint0_linear_4615_40" x1="2.23024e-05" y1="25.4251" x2="44.6117" y2="25.4251" gradientUnits="userSpaceOnUse">
    <stop stop-color="#8E2DE2"/>
    <stop offset="1" stop-color="#4A00E0"/>
    </linearGradient>
    <linearGradient id="paint1_linear_4615_40" x1="12.1699" y1="36.4561" x2="54.1777" y2="36.4561" gradientUnits="userSpaceOnUse">
    <stop stop-color="#8E2DE2"/>
    <stop offset="1" stop-color="#4A00E0"/>
    </linearGradient>
    </defs>
    </svg>
    