<svg width="33" height="33" viewBox="0 0 33 33" fill="none" xmlns="http://www.w3.org/2000/svg">
    <path fill-rule="evenodd" clip-rule="evenodd"
        d="M15.2058 0C12.1984 0 9.25848 0.887294 6.7579 2.54968C4.25732 4.21206 2.30837 6.57487 1.15748 9.33931C0.00658877 12.1038 -0.294537 15.1457 0.292181 18.0804C0.878899 21.0151 2.32711 23.7108 4.45367 25.8266C6.58024 27.9424 9.28965 29.3833 12.2393 29.9671C15.1889 30.5508 18.2463 30.2512 21.0248 29.1062C23.8033 27.9611 26.1781 26.022 27.8489 23.534C29.5197 21.0461 30.4115 18.1211 30.4115 15.1289C30.4115 11.1165 28.8095 7.26836 25.9579 4.43115C23.1062 1.59393 19.2386 0 15.2058 0ZM15.2058 22.8417C13.6725 22.8419 12.1736 22.3898 10.8987 21.5424C9.62371 20.6951 8.62994 19.4906 8.04303 18.0813C7.45612 16.6719 7.30244 15.1211 7.60142 13.6249C7.9004 12.1287 8.63862 10.7543 9.72271 9.67552C10.8068 8.59675 12.1881 7.86206 13.6918 7.56436C15.1956 7.26667 16.7543 7.41934 18.1709 8.00307C19.5875 8.5868 20.7982 9.57537 21.6501 10.8438C22.5019 12.1122 22.9566 13.6034 22.9566 15.1289C22.9566 17.1742 22.14 19.1358 20.6864 20.5822C19.2329 22.0286 17.2615 22.8413 15.2058 22.8417Z"
        fill="#00CCCB" />
    <path fill-rule="evenodd" clip-rule="evenodd"
        d="M21.0796 15.2224C21.0782 14.0229 20.7097 12.8523 20.0232 11.8663C19.3367 10.8803 18.3648 10.1256 17.2367 9.70265C16.1086 9.27969 14.8778 9.20847 13.708 9.4985C12.5382 9.78852 11.4849 10.426 10.6882 11.3262C9.89144 12.2264 9.38908 13.3466 9.24789 14.5378C9.1067 15.729 9.33338 16.9348 9.89778 17.9947C10.4622 19.0546 11.3375 19.9184 12.4074 20.4712C13.4773 21.024 14.691 21.2396 15.8871 21.0893C19.2677 20.665 24.3714 25.4511 24.4156 28.8199C24.4265 29.6465 24.6803 30.4519 25.1456 31.1367C25.611 31.8215 26.2676 32.3559 27.0345 32.6739C27.8015 32.992 28.6451 33.0798 29.4616 32.9265C30.2781 32.7733 31.0316 32.3857 31.6293 31.8115C32.2271 31.2373 32.6429 30.5016 32.8255 29.6952C33.0081 28.8887 32.9495 28.0467 32.657 27.273C32.3644 26.4993 31.8507 25.8276 31.1792 25.3409C30.5076 24.8541 29.7076 24.5735 28.8777 24.5336C26.0273 24.3984 21.6196 20.17 21.0778 16.8944C21.0197 16.5624 21.0078 16.2239 21.0427 15.8887C21.0675 15.6671 21.0798 15.4444 21.0796 15.2214"
        fill="#00CCCB" />
</svg>
    