<svg width="35" height="34" viewBox="0 0 35 34" fill="none" xmlns="http://www.w3.org/2000/svg">
    <path d="M34.4522 15.7422C34.3168 13.938 33.8956 12.1668 33.2045 10.495C32.3946 8.5482 31.2314 6.76844 29.774 5.24584C28.1887 3.58543 26.2834 2.26439 24.1735 1.36271C22.0635 0.461017 19.7928 -0.00256928 17.4987 1.07098e-05H16.7762L16.7654 0.0161911L15.2888 2.33269L15.142 2.55922L14.9104 2.9226L14.8969 2.9462L14.5448 3.49094L13.316 5.4272L13.1086 5.75553V5.76092L12.8628 6.14251L12.5646 6.61444L10.2908 10.1802L10.1898 10.338L9.32858 11.691L8.37718 12.0753L6.80161 12.7131L0.592918 15.2258L0.561272 15.5676C0.553192 15.6265 0.547806 15.6851 0.545112 15.7436C0.518853 16.1117 0.502693 16.4798 0.5 16.854C0.5 16.9099 0.5 16.9686 0.5 17.0245C0.5 17.4513 0.51616 17.876 0.547806 18.2947V18.3041C0.842319 22.2398 2.49534 25.9503 5.22334 28.7992C7.00837 30.6687 9.19615 32.1055 11.6199 33H23.3788C25.8025 32.1055 27.9903 30.6687 29.7753 28.7992C32.5086 25.9538 34.163 22.2415 34.4522 18.3041C34.4838 17.8828 34.5 17.4553 34.5 17.0232C34.5 16.591 34.4838 16.1676 34.4522 15.7422Z" fill="#F0F5F9"/>
    <path d="M26.5581 2.55413H14.2301L14.5625 2.16502L15.684 0.854311L16.701 2.61194e-05H16.7324H17.4648C20.6787 -0.0055426 23.8295 0.879445 26.5581 2.55413ZM31.9573 7.7963H14.2301V5.23816H29.9089C30.6746 6.02299 31.3607 6.87978 31.9573 7.7963ZM34.2269 13.0358H14.2273V10.4776H33.3867C33.7368 11.3064 34.0178 12.162 34.2269 13.0358ZM34.6515 15.7178H13.0349V18.2759H34.6515C34.6836 17.8552 34.7 17.4284 34.7 16.9969C34.7 16.5653 34.6836 16.1426 34.6515 15.7178ZM34.2297 20.9579C34.0183 21.8315 33.7364 22.6869 33.3867 23.5161H1.54294C1.19319 22.6869 0.911293 21.8315 0.699951 20.9579H34.2297ZM31.9573 26.1974C31.3609 27.1139 30.6751 27.9707 29.9096 28.7556H5.02068C4.25521 27.9707 3.56937 27.1139 2.97294 26.1974H31.9573ZM26.5581 31.4396C23.8286 33.1131 20.6788 34 17.4648 34C14.2508 34 11.101 33.1131 8.37147 31.4396H26.5581Z" fill="#D11536"/>
    <path d="M9.61364 1.82415C9.45876 1.90308 9.30718 1.98732 9.15495 2.0709C9.05301 2.12596 8.95042 2.18433 8.85114 2.24204C8.71479 2.32031 8.58108 2.4019 8.44738 2.48349C6.27179 3.82605 4.43238 5.65071 3.07057 7.81719C1.70877 9.98367 0.860852 12.4343 0.592003 14.9805L0.560232 15.3168C0.55229 15.3748 0.546995 15.4325 0.544347 15.49C0.544347 15.5285 0.540376 15.5676 0.537728 15.6067C0.566391 15.8295 0.556087 16.0555 0.507281 16.2747C0.507281 16.3775 0.500662 16.479 0.5 16.5825C0.5 16.6375 0.5 16.6952 0.5 16.7503C0.5 17.1702 0.515885 17.5881 0.546995 18H16.5V0C14.1004 0.104668 11.7515 0.726868 9.61364 1.82415Z" fill="#002868"/>
    <path d="M9.96437 3.14021L10.0903 4L9.4269 3.59431L8.76044 4L8.88698 3.14021L8.5 2.70747C8.62285 2.61993 8.7457 2.53238 8.87469 2.4484L9.09337 2.41139L9.15479 2.26477C9.29607 2.17509 9.43735 2.0847 9.58047 2L9.75553 2.41139L10.5 2.53523L9.96437 3.14021Z" fill="#F0F5F9"/>
    <path d="M14.5 2L14.8088 2.65846L15.5 2.76411L15 3.27671L15.1176 4L14.5 3.65846L13.8818 4L14 3.27671L13.5 2.76411L14.1906 2.65846L14.5 2Z" fill="#F0F5F9"/>
    <path d="M7.5 5L7.80879 5.65846L8.5 5.76411L8 6.27671L8.11815 7L7.5 6.65846L6.88185 7L7 6.27671L6.5 5.76411L7.19064 5.65846L7.5 5Z" fill="#F0F5F9"/>
    <path d="M12.5003 5L12.8092 5.65846L13.5 5.76411L13.0004 6.27671L13.118 7L12.5003 6.65846L11.882 7L12.0001 6.27671L11.5 5.76411L12.1908 5.65846L12.5003 5Z" fill="#F0F5F9"/>
    <path d="M14.5 8L14.8088 8.98769L15.5 9.14616L15 9.91416L15.1176 11L14.5 10.4877L13.8818 11L14 9.91416L13.5 9.14616L14.1906 8.98769L14.5 8Z" fill="#F0F5F9"/>
    <path d="M12.5003 11L12.8092 11.9877L13.5 12.1453L13.0004 12.9142L13.118 14L12.5003 13.4877L11.882 14L12.0001 12.9142L11.5 12.1453L12.1908 11.9877L12.5003 11Z" fill="#F0F5F9"/>
    <path d="M14.5 15L14.8088 15.6585L15.5 15.7641L15 16.2767L15.1176 17L14.5 16.6585L13.8818 17L14 16.2767L13.5 15.7641L14.1906 15.6585L14.5 15Z" fill="#F0F5F9"/>
    <path d="M5 8L5.46319 8.9877L6.5 9.14616L5.74914 9.91507L5.92637 11L5 10.4877L4.07277 11L4.25 9.91507L3.5 9.14616L4.53596 8.9877L5 8Z" fill="#F0F5F9"/>
    <path d="M9.5 8L9.80879 8.9877L10.5 9.14616L10 9.91507L10.1182 11L9.5 10.4877L8.88185 11L9 9.91507L8.5 9.14616L9.19121 8.9877L9.5 8Z" fill="#F0F5F9"/>
    <path d="M7.5 11L7.80879 11.9877L8.5 12.1462L8 12.9151L8.11815 14L7.5 13.4877L6.88185 14L7 12.9151L6.5 12.1462L7.19064 11.9877L7.5 11Z" fill="#F0F5F9"/>
    <path d="M2.5 11L2.80879 11.9877L3.5 12.1462L3 12.9151L3.11758 14L2.5 13.4877L1.88185 14L2 12.9151L1.5 12.1462L2.19064 11.9877L2.5 11Z" fill="#F0F5F9"/>
    <path d="M1.42572 16.1185L0.815872 16.4614L0.976935 17L0.5 16.8564C0.5 16.6073 0.521892 16.3627 0.552385 16.1171C0.555512 16.0779 0.561767 16.0389 0.571149 16L1.5 16.0763L1.42572 16.1185Z" fill="#F0F5F9"/>
    <path d="M5 15L5.46319 15.6585L6.5 15.7641L5.74914 16.2767L5.92637 17L5 16.6585L4.07277 17L4.25 16.2767L3.5 15.7641L4.53596 15.6585L5 15Z" fill="#F0F5F9"/>
    <path d="M9.5 15L9.80879 15.6585L10.5 15.7641L10 16.2767L10.1182 17L9.5 16.6585L8.88185 17L9 16.2767L8.5 15.7641L9.19121 15.6585L9.5 15Z" fill="#F0F5F9"/>
    <path opacity="0.12" d="M26.9864 5.13117C24.1829 2.99132 20.6879 1.88519 17.1229 2.00944C8.94858 2.27573 2.41206 8.92027 2.50089 16.8529C2.51548 18.2782 2.74478 19.6938 3.18153 21.0547C3.2701 21.3349 3.45109 21.5791 3.69667 21.7498C3.94225 21.9205 4.23883 22.0082 4.5408 21.9994C21.1406 21.4506 26.225 10.1941 27.4333 6.56763C27.5191 6.31259 27.5222 6.03819 27.4423 5.78136C27.3624 5.52454 27.2033 5.29762 26.9864 5.13117Z" fill="white"/>
    </svg>
    